<?xml version="1.0" encoding="UTF-8" standalone="no"?>
<svg
   xmlns:dc="http://purl.org/dc/elements/1.1/"
   xmlns:cc="http://creativecommons.org/ns#"
   xmlns:rdf="http://www.w3.org/1999/02/22-rdf-syntax-ns#"
   xmlns:svg="http://www.w3.org/2000/svg"
   xmlns="http://www.w3.org/2000/svg"
   width="210mm"
   height="297mm"
   viewBox="0 0 210 297"
   version="1.1"
   id="svg8">
  <defs
     id="defs2" />
  <metadata
     id="metadata5">
    <rdf:RDF>
      <cc:Work
         rdf:about="">
        <dc:format>image/svg+xml</dc:format>
        <dc:type
           rdf:resource="http://purl.org/dc/dcmitype/StillImage" />
        <dc:title></dc:title>
      </cc:Work>
    </rdf:RDF>
  </metadata>
  <g
     id="layer1">
    <path
       style="fill:#bcd35f;stroke:#3f4d40;stroke-width:0.293269"
       d="m 21.102699,-6400.9135 c -0.781131,2.4779 -3.407906,3.9301 -5.152237,5.6208 -1.56608,1.5182 -3.707144,2.2138 -5.419466,3.7514 m 21.437065,-9.3722 c -1.036908,0.4727 -1.765768,0.6588 -2.055609,1.7573 m -7.341461,-0.8786 v 0.8786 m 3.230243,-0.5858 -0.293658,0.5858 m 2.642925,0.5858 1.468293,-1.1716 m -8.809753,0.8787 -0.668073,4.3932 -1.447443,3.0099 -2.289361,1.3833 c 1.829199,2.0983 0.387336,2.8774 2.936585,4.1004 0.352683,-1.359 0.441955,-1.8076 0.587316,-2.9289 -0.526236,0.4135 -0.986692,0.6358 -1.468292,2.0502 m 4.698535,-12.0081 v 0.2929 m -0.880975,0 v 0.8786 m 2.936584,-0.8786 -0.293658,2.343 m -3.230243,-2.0501 v 0.5857 m 2.642926,-0.5857 v 0.2928 m -1.468292,0.2929 -0.293659,1.4644 m 3.523901,-1.4644 v 0.2929 m 0.587317,-0.2929 h 0.293659 m -2.936585,0.2929 v 0.2929 m -9.690728,0 -2.642926,2.6359 m 8.222436,-2.6359 v 0.2929 m 2.055609,-0.2929 -0.293658,1.1715 -0.293658,-0.8786 m -25.254622,0.8786 -0.58732,0.2929 0.88098,-0.8787 m 28.778521,-0.2928 h 0.293659 m -1.761951,0.2928 -0.880975,1.4644 m -1.174634,-0.8786 v 1.1715 m -0.587317,-0.8786 v 1.1715 m -25.841943,-0.8786 c -0.34652,0.368 -0.77349,0.6917 -1.42395,1.268 -0.84133,0.7456 -1.54259,2.1997 -2.68727,1.9537 m 3.5239,-2.9289 0.29366,0.2929 m 20.262435,-0.2929 -0.587317,0.5858 m 9.397069,-0.5858 h 0.880976 m -5.57951,0.2929 v 0.2929 m 2.936584,-0.2929 v 0.2929 m -27.603897,0 -1.46829,2.3431 m 29.659504,-2.3431 h 0.293658 m 0.587317,2.3431 c -1.433053,-0.1019 -1.759014,-0.4533 -2.349267,-0.8787 1.116489,-0.5981 2.308155,-0.9934 4.111218,-0.8786 m -22.02438,0 0.29366,1.4644 -0.63401,0.1923 c -2.40183,0.4274 -2.89636,1.0499 -4.9455,1.3937 -0.67806,0.1137 -1.33997,-0.061 -1.76195,-0.027 -2.0518,0.1675 -3.95793,2.1078 -3.8669,3.1055 0.0206,0.2276 0.14037,0.4639 0.44078,0.6416 0.70126,0.4146 2.91339,-0.9969 3.65664,-1.5182 0.78788,-0.5522 1.01459,-1.114 1.23777,-1.4452 m 13.508285,-3.8074 -0.293658,0.2928 m 9.103411,-0.2928 c 0.963199,1.2425 0.447535,1.8219 2.055609,3.8074 l -2.055609,0.5858 c 0.486592,0.7352 0.703899,1.0341 1.76195,2.343 0.429916,-0.5077 1.097696,-1.4092 1.727299,-1.4043 0.594365,0 1.213984,1.4405 0.221419,1.9164 -0.732384,0.3511 -1.350535,-0.3206 -1.655059,-0.5121 m -14.389263,-6.4434 0.293658,0.8787 m -9.984382,1.4644 -0.29366,-1.4644 4.40487,-0.5858 m 7.928781,0 0.293659,0.2929 m -23.19902,0 v 0.5858 m 17.91317,-0.5858 c -0.37089,1.8018 -0.0943,3.5163 -1.05659,6.4434 -1.04366,3.1739 -2.77947,4.5017 -1.27623,5.8273 0.24931,0.2199 0.50714,0.3897 0.86453,0.3232 m 16.151209,-12.301 1.174634,-0.2929 m -13.508288,0.2929 v 0.8786 m 9.103412,1.4644 -2.055609,-0.8786 1.174633,-1.4644 m 6.460486,0 h 2.055609 m -10.571704,0.2929 c -0.192052,0.6716 -0.342699,0.9231 0.587317,1.4644 m 15.857555,-1.4644 c -1.282993,0.834 -2.417983,1.6533 -3.817559,0.8786 l -0.293659,-0.2929 h -0.293658 m -22.024378,-0.2928 0.88097,0.8786 m -17.6195,-0.5858 -0.29366,6.1505 m 22.611696,-6.1505 -0.587317,1.1716 m 4.992193,-1.1716 v 0.2929 m 7.63512,0 c 0.781131,0.062 1.104155,0.1717 2.642925,0.2929 m 0.293659,2.343 3.230243,-2.343 m 2.642925,-0.2929 h 0.293659 m -42.580473,0.2929 c 0.27369,1.357 0.63107,1.697 1.46829,2.6359 l 1.17464,-2.6359 m 28.484864,0 1.174634,0.8786 v 0.2929 m 0,-0.5857 0.880975,-0.5858 m -7.635119,0.2929 c -0.883325,1.2412 -0.594952,1.3884 -0.293658,2.0501 -1.4633,0.8259 -1.841532,0.1357 -2.936585,-0.5857 m -21.143411,-1.1715 -0.29365,1.7572 m 34.945349,-1.4644 h 0.293658 m -34.358037,0.2929 -0.88097,0.8787 m 19.675111,-0.8787 v 0.2929 m 6.754144,-0.2929 h 1.174633 m -5.285851,1.1715 1.174633,-0.8786 m -24.37365,0.2929 c 0.42081,0.8331 0.52947,1.0093 1.46829,1.1715 m 4.9922,-1.1715 0.58731,1.4644 m 21.437068,-1.4644 0.587317,1.4644 m 5.57951,-1.4644 0.587317,1.1715 m -14.095604,-0.5858 h 1.468292 m 2.642926,0 c 1.230722,0.5623 2.591242,1.8939 3.817559,2.0502 -0.388804,-0.7379 -0.365017,-0.4713 -0.880975,-0.2929 m -1.761951,-1.4644 c 1.028686,-0.2698 1.091822,-0.1758 1.761951,0 m -4.698535,0 -4.992195,2.3431 m 9.69073,-2.3431 v 0.8787 m 1.76195,-0.8787 h 0.880976 m 4.404876,0.2929 0.587317,0.5858 0.293658,0.2929 m -35.826327,-0.5858 h 0.88097 m 9.39707,0 c -3.60583,3.5962 -3.98171,3.2106 -5.28585,2.0502 -1.25862,3.6532 -0.866,4.8773 -0.0117,5.7333 0.81666,0.8183 1.22338,1.8151 0.81783,3.299 -0.10806,0.3956 -0.33888,0.6376 -0.51243,0.9256 -1.37285,-1.1959 -1.80805,-1.5462 -2.64292,-2.343 -0.16974,0.5653 -0.38117,1.6782 0.6158,2.3948 1.05687,0.7594 1.33262,0.8675 2.02712,-0.052 m 13.801947,-11.7152 1.761951,-0.2929 m -20.849748,0.2929 -0.58732,0.5857 m 0.88098,-0.2928 0.58731,0.8786 m 25.548288,-0.8786 c -1.077433,0.8268 -3.36562,1.0397 -4.698535,1.2167 -2.102595,0.2792 -2.892829,1.3617 -1.761951,2.5907 m 2.936585,-3.5146 h 0.293658 m 8.222436,1.4644 c 0.813434,-0.4615 1.087711,-0.6886 2.349267,-1.4644 m -33.477058,0.2929 -0.88098,1.1715 m 2.64293,-0.5857 3.23024,-0.2929 m 16.151214,0 0.587317,-0.2929 m 4.404877,0 c 0.608754,0.899 0.540038,3.3244 2.581551,3.3284 0.755289,0 0.943818,-0.865 0.950866,-0.9528 0.0602,-0.7438 -0.723574,-1.3374 -1.476808,-2.0827 m -0.587317,-0.2929 -0.587317,0.5858 m -33.477063,-0.2929 c 2.48435,1.1044 3.89127,3.2726 5.57951,5.2719 m 2.93659,-5.2719 2.05561,2.0502 m -10.57171,-1.4644 3.81756,3.2216 m 11.45268,-3.2216 -0.29366,0.2928 m 21.730726,-0.2928 v 0.5857 m -19.968776,-0.2929 h 0.58732 m 10.865361,1.1716 2.349268,-0.1998 2.642926,-0.9718 m 7.928777,0 h 0.293659 m 2.936584,0.2929 h 0.293658 m -44.929743,0.2929 c 1.86503,1.1653 2.75276,2.3539 1.76195,4.1003 l -2.34926,-1.7573 -0.29366,0.2929 0.29366,0.2929 0.58731,0.2929 m 14.68293,-3.2217 -1.17464,0.5858 m 26.135602,-0.5858 c 2.106705,0.4782 2.588305,0.7713 4.404876,0 l -0.587317,0.8786 m -44.342421,-0.5857 c 1.32469,1.0942 2.05884,1.907 1.76195,3.2217 m 14.68292,-2.9288 -1.76195,2.343 0.58732,1.1715 1.46829,-0.2928 m 11.746336,-3.2217 v 0.2928 m 3.81756,-0.2928 h 0.587316 m -26.135602,0.2928 0.88098,0.8787 m 7.34146,-0.8787 0.58732,0.5858 m 10.865357,-0.5858 c -0.702431,0.9578 -0.944697,2.0238 -1.364337,2.9289 -1.52644,3.293 0.52154,3.4677 1.364337,3.8074 0.04904,-0.6479 -0.370303,-1.2444 2.055609,-2.9288 -1.026336,-1.0981 -2.018608,-0.5467 -3.230246,-0.2929 m 0.58732,-2.343 c 1.033384,0.2681 3.391168,-1.2131 4.687082,-0.7743 1.608955,0.545 2.286131,2.1563 3.241696,3.1173 l 2.055609,-2.6359 m -4.111218,-0.8787 v 0.5858 m 13.801946,-0.5858 h -0.587317 m -11.746337,0.2929 1.76195,1.7573 m 6.460486,0.8787 c -1.906137,-0.03 -2.285544,-0.8559 -2.936584,-1.4645 0.598769,-0.4344 1.526142,-1.0127 3.523901,-1.1715 m -42.580474,0.2929 0.88098,0.8786 m 19.08779,-0.2928 0.29366,-0.5858 1.4683,1.4644 m -20.26244,-1.1715 0.29366,0.2929 m 10.57171,-0.2929 2.34926,2.6359 0.88098,-0.5857 m 1.17463,-2.0502 c 2.14665,2.0417 3.39058,2.4386 4.9922,2.0502 m -4.40488,-1.7573 1.46829,-0.2929 m 18.79414,0 1.468293,0.5857 m -39.350233,-0.2928 0.58732,0.5857 m 2.64293,-0.5857 0.58731,0.5857 m 0.88098,-0.5857 0.88097,0.8786 c -0.43079,0.4296 -0.0464,0.5703 -0.88097,0.2929 m 2.34927,-0.8787 0.88097,0.8787 m 8.5161,-0.5858 0.58731,0.5858 m 12.333656,0.5858 0.880975,-1.1716 3.230243,3.5146 -2.349267,1.4814 -1.695878,1.7399 -1.240707,2.0506 -1.468292,-1.1716 -0.58732,0.5858 c 0.673949,0.9488 3.417306,3.1441 4.111221,3.8075 l 0.293659,-1.7573 h 1.76195 l 0.477783,-1.9632 2.059426,-1.6655 0.399376,-0.4717 -1.761951,-1.4644 c -0.381756,0.7106 -0.690685,1.0274 -0.587317,2.9288 m -1.76195,-7.0291 1.174633,-0.5858 m 4.111218,0 c 0.795815,0.7869 0.893016,1.6194 3.523901,2.636 m -25.548279,-2.3431 h 1.17463 m 10.5717,0 -0.58731,1.1715 m -21.73073,-0.8786 c 1.14645,1.0696 1.64155,1.4791 2.93659,0.5858 l -0.58732,-0.5858 m -1.17463,0.5858 -1.17464,0.2928 m 4.69854,-0.2928 v 0.5857 m 2.93658,-0.5857 c -0.35709,1.3454 -0.53504,1.9117 -0.58731,2.9288 m 8.51609,-2.9288 c 0.47954,0.9104 0.47015,0.435 0.88097,0.2928 m 5.28586,2.636 -1.4683,1.4644 0.29366,-1.4644 c -0.82811,-0.9305 -0.71711,-2.6631 0.88098,-2.9288 m -2.05561,0.2928 h 0.58732 m 7.047798,0 1.468292,2.3431 m -10.5717,-2.0502 0.58731,3.8075 m -0.58731,-3.8075 1.76195,1.1715 m 11.452676,-1.1715 -1.468292,1.4644 m 1.468292,-1.4644 c 1.104743,1.1245 0.990216,3.8918 7.047802,5.8576 m -35.826328,-5.5647 2.05561,1.7573 m -0.29366,-1.7573 0.58732,0.8786 m 5.57951,-0.8786 0.29366,0.5858 m 14.976576,-0.5858 h 1.174634 m 8.809753,0 h 0.880975 m -22.905358,0.2929 c 1.92904,3.0951 1.97192,2.6899 4.11122,0.8786 m -2.05561,-0.8786 0.88097,1.4644 m 4.11122,-1.4644 0.58732,0.5857 m -19.38146,-0.2928 2.64293,2.6359 -2.64293,-0.5858 m 10.86537,-1.4644 0.88097,0.8787 v -0.8787 m 11.746338,-0.2929 0.293658,1.4644 c 0.796402,-0.6417 0.776139,-0.6088 1.761951,-1.4644 m 9.397069,0 h 0.880976 m -36.707302,0.5858 1.17463,0.2929 m 17.61951,-0.2929 -0.88098,0.8786 m 17.619508,0.5858 c -2.019196,-0.4828 -2.105531,-0.8064 -2.642926,-1.1715 0.841331,-0.1941 1.537008,0.092 3.523901,0.5857 m -1.468292,-0.8786 2.055609,0.2929 m -25.84194,0 0.58732,-0.2929 m -0.29366,0.2929 c 2.24149,2.2354 2.0098,1.8149 3.44784,3.5143 0.70713,0.8358 1.0651,1.4795 1.57988,1.5989 0.76616,0.1776 1.52057,-0.7282 1.1391,-1.8915 l 1.17464,-1.1716 m 13.508285,-2.0501 h 0.587317 m -3.81756,0.2929 v 0.5857 m 8.516095,-0.5857 h 0.293658 m -25.254625,0.2928 -0.58732,0.5858 m 12.627316,-0.5858 c -1.377845,1.2666 -2.042101,1.7821 -2.936586,2.9289 m -19.0878,-2.636 -0.58731,0.5858 m 34.94535,-0.5858 h 0.293658 m -29.659498,0.2929 0.29366,0.2929 m 7.63511,-0.2929 1.76196,2.6359 -0.29366,-0.5857 m 4.69853,-2.0502 -1.17463,1.1715 -0.88098,-0.8786 m 2.936587,-0.2929 0.587317,0.5858 m 8.809753,-0.5858 -1.174634,1.1715 m -27.016573,-0.8786 1.76195,0.2929 m 5.28585,-0.2929 c 0.19352,0.8517 0.12715,1.9384 -0.38587,2.3521 -1.25157,1.0091 -2.0189,0.6033 -0.78876,4.3842 1.78397,-1.5049 2.37393,-1.1675 3.5239,-1.1716 -0.13567,-1.781 -1.08419,-2.3186 -2.05561,-3.2217 m 24.960965,-2.343 h 0.587317 m -12.920971,0.2929 0.880975,0.5857 m 9.103411,-0.5857 2.936585,0.5857 m -30.834132,-0.2929 c -0.35797,0.4472 -1.29357,1.6127 -1.12648,2.9275 0.0954,0.7532 0.33125,1.1372 0.87628,1.4576 0.41876,0.2463 0.97083,0.2964 1.42336,0.2533 0.91886,-0.087 1.31089,-0.5061 1.76342,-0.8309 m 9.69073,-3.8075 h 0.29366 m 1.17463,0 -0.88097,0.8787 m -5.57951,-0.5858 c -0.7644,1.3101 -0.31833,1.5045 0,2.0502 l 2.0556,-2.0502 m 4.9922,0 c -0.27633,1.1629 -0.28456,1.6312 0.88097,2.9288 m 9.690731,-2.9288 c 1.462419,1.0295 3.044064,1.3069 5.873169,2.3431 m -12.039996,-2.0502 c 0.819307,0.588 1.131466,0.8578 2.936585,0.8787 m -9.690729,-0.5858 c 0.92121,0.9563 1.44627,1.8291 2.64293,2.0502 m 15.563893,-2.0502 h 0.293659 m -17.619502,0.2929 -0.29366,0.2929 m 2.05561,0 h 0.88097 m -12.92097,0.2928 v 0.2929 m 10.27805,-0.2929 c -0.13215,0.681 0.10894,1.8874 1.17903,2.4503 0.93589,0.4923 1.56843,-0.2841 2.051209,-0.693 v 0 m 8.516094,-1.7573 c 1.654765,0.848 2.900171,1.5325 4.992193,2.3431 m -18.206826,-2.0502 h 0.29366 m 2.93659,0 0.58731,0.5858 m 6.754147,-0.2929 1.761951,0.2929 m -16.444868,0 -0.58732,0.5857 m 9.690727,-0.5857 0.293658,0.2929 m 10.571704,-0.2929 h 0.880975 m -16.738534,0.2929 h 1.17464 m 4.698532,0 c 0.380582,0.6032 0.386455,0.8055 2.055609,1.1715 m 4.992194,-1.1715 v 0.5857 m -14.976585,-0.2929 c -0.26869,1.7811 0.64899,1.3889 2.33077,1.8124 1.1811,0.2973 1.21281,1.6802 1.08889,2.5738 -0.0487,0.3509 -0.21907,0.8936 -0.79817,0.9949 -0.82606,0.145 -1.42923,-0.7108 -1.74051,-0.9878 l -0.88098,0.8786 0.98024,1.4717 0.0658,1.4556 1.00959,1.7588 1.17464,-1.1715 c 0.45781,1.0842 0.36384,1.2239 0,2.0501 l -0.88098,-0.8786 m 2.34927,-9.958 v 0.5858 m 8.809752,-0.2929 v 1.7573 l -1.468292,-0.8786 m -10.27804,-0.8787 h 0.29365 m 3.81756,0 c 1.697055,1.7494 2.078518,3.3822 2.936588,4.3932 -0.550316,0.5451 -0.820188,1.1095 -2.056197,1.7816 -1.004901,0.5468 -2.667891,0.8005 -2.055021,2.0259 l 0.29366,-1.1715 m 10.571701,-7.0292 v 0.5858 m -7.34146,-0.2929 v 0.5858 m 4.111218,-0.5858 h 0.587317 m 1.174633,0 -0.880975,0.5858 m 34.945353,1.4644 -0.293659,-0.8787 c 1.071854,-0.7679 1.687949,-0.9545 3.230243,-0.8786 l 0.293659,2.0502 m 0,-2.3431 c 3.438153,0.6458 6.72096,-0.1928 9.397069,0.8786 m -62.842899,0.5858 1.46829,-1.1715 m 13.508286,0 -0.587317,0.5857 m 2.349267,-0.5857 v 0.5857 m 33.183402,4.6861 -1.76195,-4.3932 2.055609,-0.5857 m 12.333654,-0.2929 1.174634,0.2929 m -57.263395,0 -0.88097,0.8786 m 12.920967,-0.8786 2.349267,1.1715 m 35.53267,-1.1715 1.468292,0.8786 m -65.779486,-0.5858 1.47387,1.9585 2.63735,-0.2012 m 7.34146,-1.7573 h 0.29366 m 44.636076,3.2217 c -0.544442,0.2352 -3.496003,-0.025 -3.297784,-1.4322 0.173846,-1.233 1.391354,-1.7552 3.004126,-1.2037 m 4.698535,0 -1.468292,-0.5858 0.880975,1.4645 m -47.279006,-1.1716 -0.88098,0.5858 m 3.23025,-0.5858 c -0.25637,0.6432 -0.60377,1.0673 0,2.3431 l 2.055605,0.2929 -1.468295,1.4644 -0.58731,-1.7573 m 10.278041,-2.3431 -0.293658,1.7573 -1.761951,-1.4644 m -15.563892,0 -0.0828,2.2593 1.54523,1.8381 1.47417,1.4673 m 4.40488,-5.2718 0.58731,0.5858 1.174637,-0.8787 m 9.690728,0 1.174634,0.8787 m 26.429258,-0.5858 1.468292,1.1715 m 3.523902,-1.1715 c -0.641057,1.8375 -0.202037,2.5229 0.293658,4.6861 m -59.906319,-4.3932 c 0.30629,1.1117 -0.33624,2.1509 0.97759,2.8933 1.19666,0.6763 2.6673,-0.704 3.42729,-1.7218 m 19.381452,-1.1715 -0.293658,1.1715 m -14.976584,-0.8786 c 0.4819,0.01 2.28349,-1.1786 2.93659,1.1715 m 4.69853,-1.1715 v 0.5857 m 10.278048,-0.5857 2.642926,1.7572 m 19.087798,4.1004 c 0.365017,1.0092 -0.655739,1.4776 -1.174634,2.0501 l -1.76195,-1.7572 c 0.900356,-0.8687 1.653003,-0.5293 4.404876,-2.636 -1.187555,-1.209 -1.312359,-1.4105 -1.76195,-2.0501 2.388911,-1.345 2.649386,-1.605 4.992193,-1.1716 m 4.111218,-0.2928 c 1.748148,0.7579 2.420333,1.1044 3.523901,2.343 m -52.271196,-2.0502 2.0556,2.0502 m 0.29366,-2.0502 -0.29366,1.4644 m 9.984391,-1.4644 -0.880975,1.4644 m 33.183402,-1.4644 -1.174633,2.0502 -2.055609,-1.4644 m -37.588276,-0.2929 h 1.46829 m -3.81756,0.2929 h 2.05561 m 14.389261,0.5858 h 1.174634 c -0.967604,0.2225 -1.528198,0.1151 -1.76195,1.1715 l 0.293658,0.2929 h 0.293658 m 35.239012,-2.0502 0.293658,0.5858 m -60.787291,-0.2929 0.88097,-0.2929 m 11.74634,0.2929 v 0.8786 m 18.50048,-0.8786 0.293658,0.2929 m 21.143407,-0.2929 c -0.566761,0.7606 -0.186473,1.6732 -1.76195,3.8074 l -1.761951,-1.1715 m -45.223394,-2.343 c 0.5324,0.3904 1.39076,0.917 2.03887,1.5262 0.3888,0.3652 0.94881,1.2503 1.2407,1.9883 0.34681,0.876 0.5791,1.1513 0.73063,1.4644 0.3747,0.7744 0.24814,1.6299 -0.4863,2.636 l 2.34926,2.343 1.76196,-1.7573 -2.64293,-2.6359 1.76195,-1.1715 m 6.754144,-4.3932 h 0.587317 m 5.57951,0 v 0.2928 m 3.230243,-0.2928 1.76195,2.343 m 15.857555,0 c -0.23522,-1.1993 0.0878,-1.6091 1.468292,-2.343 -0.67747,2.3925 -1.959289,2.8292 -2.349267,3.2216 -0.639882,-0.6153 -0.950572,-1.9236 -2.936584,-1.1715 1.321756,1.7046 1.819801,1.8288 2.936584,1.4644 m -25.841942,-3.2217 c -0.407598,0.3899 -0.494227,0.8377 -2.055612,1.4644 m 30.54048,-1.4644 0.880975,0.2929 m 6.460486,-0.2929 c 0.23845,1.6393 2.085855,1.7887 3.230242,4.6861 m -49.334613,2.9288 c -0.82636,-1.1703 -1.38225,-1.6219 -1.96252,-2.343 -0.15182,-0.1889 -0.40672,-0.4018 -0.58556,-1.1715 -0.13508,-0.5808 -0.0305,-1.0676 0,-1.1716 0.19852,-0.6786 0.4587,-1.3698 2.25442,-2.6359 m 19.087797,0 0.880975,0.2929 m 0.587317,-0.2929 0.293658,0.2929 m 19.087798,-0.2929 c -0.110415,0.5703 0.04552,0.6654 -0.880975,2.0502 m 8.809753,-2.0502 c 0.09896,0.6649 0.07429,0.8508 0.587316,2.0502 m -44.929739,-1.7573 0.88098,0.8786 m 7.635114,-0.8786 c -0.02408,1.5892 0.996971,2.1565 1.761951,2.9288 m 21.143407,-2.343 1.76195,0.2928 m 6.166827,-0.8786 v 1.1715 m 11.746337,-1.1715 v 0.2929 m -38.175595,0 h 0.293658 m 27.310234,0 h 0.293659 m 4.992193,0 0.293658,2.6359 m -56.382413,-2.343 c 0.0161,1.7868 -0.12775,1.8867 0.93207,3.1379 0.53387,0.6306 0.94382,1.1677 1.4263,1.791 0.57645,0.745 0.92355,0.914 1.17786,1.0529 0.77203,0.4217 1.39077,0.3259 2.04328,0.1687 -0.64987,-0.6488 -1.25187,-1.1461 -1.97427,-2.0502 -0.29601,-0.3705 -0.58849,-0.6224 -0.96232,-2.0502 m -1.76195,-2.0501 c 0.82929,1.4638 0.56559,2.0437 0,2.9288 m 13.21463,-2.636 -1.17463,-0.2928 v 1.7572 m 25.254621,-1.7572 -0.587317,2.343 c 0.626667,-0.4264 0.999026,-0.7424 2.349267,-1.7573 m 13.21463,-0.5857 -0.293659,2.0501 m -27.310234,-1.7573 h 0.587317 m 11.15902,1.7573 -0.880975,-0.8786 1.174634,-0.5858 m 7.341461,-0.2929 c 0.636651,0.635 0.203798,0.2033 0.880975,0.8787 m 6.166827,-0.8787 0.293658,0.2929 m 7.928778,-0.2929 0.293658,0.2929 m -45.810711,0 0.29365,0.2929 m 3.230248,-0.2929 c -0.01527,1.3212 -0.08604,1.827 -0.880976,2.9288 l -1.468292,-2.343 m 7.928778,1.4644 -1.468292,-1.4644 1.468292,-0.2929 m 4.992193,0 0.587317,0.5858 m -4.992193,-0.2929 c 3.451954,1.2031 3.409374,2.4772 4.404876,3.5146 -0.73121,1.2875 -0.224061,1.7306 0.587317,2.6359 l -0.385574,-2.4631 -1.670035,-0.4657 m 10.278045,-2.0502 -0.587317,1.1715 c -0.385574,-0.4469 -1.577239,-1.0034 -0.587317,-2.343 m 12.627313,0 c 0.418463,1.8068 0.464567,1.4527 -0.03994,2.9291 -0.278682,0.816 -0.268697,1.3144 -0.270753,2.0499 -0.0035,1.3288 0.129503,3.9922 0.310691,5.5647 m -8.809753,-10.2508 c -0.649279,0.8821 -1.177571,1.5106 -2.642926,1.4644 m -2.936584,-1.1716 h 0.880975 m 12.039995,0 v 1.4645 m 4.111218,-1.4645 1.174634,0.8787 m -42.28681,-0.5858 2.05561,0.8787 m 32.889739,-0.8787 c 0.597302,0.4432 0.610516,0.5846 1.761951,0.8787 m 1.761951,-0.8787 -0.880976,0.8787 1.174634,0.8786 m 1.761951,-1.4644 h 0.293658 m -51.096568,0.2929 -1.46829,0.8786 m 43.461447,-0.8786 -1.761951,2.0502 2.642926,-2.0502 m 0.293658,0 c 0.05638,0.8016 -0.337413,3.2436 -2.642925,2.6359 m 14.389262,-2.6359 h 0.293659 m -40.818516,0.2929 2.349262,0.5857 m 6.754144,1.7573 c -1.016352,-0.4255 -2.405063,-0.6956 -2.055609,-2.343 l 2.055609,1.1715 m 0.587317,-1.1715 3.523901,2.9288 m 4.404876,-1.4644 -0.880975,-1.1715 0.293658,-0.2929 c 0.65016,1.1492 -0.851609,3.4999 2.349268,4.9789 l -2.349268,2.3431 c 0.994915,0.3046 1.540239,0.7451 2.936585,-1.1715 l 3.230242,3.2217 c 1.115902,-1.3142 2.092023,-3.1479 3.230243,-1.1716 m 11.452679,-8.2006 c -1.693529,1.892 -0.685693,2.6034 -0.293659,3.8074 l 1.761951,-1.7573 c -0.853078,-0.7773 -0.991978,-1.03 -1.761951,-1.1715 m -34.651694,-0.5857 3.230242,3.2216 m 11.746338,-2.6359 c 2.738071,-0.074 3.001776,-0.2035 4.111218,0 l 0.293658,2.6359 2.936584,-1.1715 0.293659,0.2929 0.293658,0.2929 0.293659,-0.2929 m -1.761951,-2.343 1.468292,1.4644 m -30.834136,-1.1716 c 0.36179,0.3603 0.64605,1.4094 2.93659,2.3431 v -0.8787 m 18.794135,-1.4644 -1.468292,1.1716 m 14.682921,-1.1716 c -0.691566,1.2928 -0.770266,2.2795 0,4.1004 l 1.174634,-1.1716 -3.81756,-0.5857 m 9.103412,-2.3431 0.880975,1.4644 m 1.468292,-1.4644 0.293658,1.1716 m 0.587317,-1.1716 0.587317,0.8787 m -54.326809,-0.5858 c -0.16122,1.3174 -0.41406,1.7951 -0.58731,2.6359 l 1.76195,0.2929 m 14.976573,-2.9288 c -0.234045,0.3664 -0.795814,0.7047 -0.535633,1.7529 0.252547,1.0181 2.61914,1.7711 3.178559,1.4688 m 14.389263,-3.2217 0.880976,0.8787 0.880975,-0.8787 m 13.801946,0 c 0.8428,1.3045 1.443331,2.5765 2.642926,3.2217 m -34.064378,-2.9288 0.46956,1.4503 1.586049,0.8927 m 13.508288,-2.343 c -0.428154,1.5646 -0.869229,1.6937 -1.174634,2.0502 m 7.047802,-2.0502 v 0.5858 m 9.103412,-0.5858 c -0.429916,0.7644 -1.467118,2.3061 0,3.5146 m 7.34146,-3.5146 0.880976,0.8786 m -34.651695,-0.5857 -0.880975,1.1715 m -7.34146,-0.8786 c 1.2551,2.1456 1.26538,3.1197 0.53123,3.6475 -0.19616,0.1409 -0.57557,0.4607 -1.41074,-0.01 -1.04982,-0.5904 -1.66827,-1.4943 -1.76341,-1.5883 m 23.492668,-2.0501 c 0.300999,0.6373 0.293658,1.2224 2.055609,2.0501 m 20.556089,-2.0501 v 0.2928 m -34.064377,0 -0.880975,0.8787 v 0.5857 m 2.055609,-1.4644 h 0.587316 m 0.587317,0 0.587317,0.2929 m 4.698535,-0.2929 0.880975,0.5858 m 14.682922,-0.5858 c -0.608754,1.417 0.281912,1.668 1.174633,1.7573 m 8.516095,-1.7573 v 0.8787 m -9.39707,-0.5858 h 0.880975 m -25.548283,0.2929 0.293659,0.2929 m 6.166827,0.8786 c -0.461044,0.1813 -1.243938,0.4505 -1.569017,0.2355 -0.796696,-0.5269 -0.05844,-0.9472 0.688041,-1.407 m 10.865362,0.2929 3.81756,1.7573 m -1.761951,-1.7573 0.880975,2.0501 0.587317,-0.5857 m 12.333654,-1.4644 c -0.33712,1.4779 -0.949691,1.7763 0,3.5146 0.344755,-1.2799 0.107479,-1.5863 -0.293658,-2.3431 m -48.453634,-0.8786 c 1.6762,1.5941 1.45683,1.9388 1.46858,4.3932 0.005,1.0177 0.19235,1.7262 -0.13244,2.6359 -0.34064,0.9551 -0.81637,1.3534 -1.12207,1.752 -0.87804,1.1443 -2.13343,1.9489 -2.80297,2.657 -0.4769,0.5047 -1.06598,0.5876 -1.81598,2.913 h 0.88097 m 10.27805,-14.3511 0.29366,1.4644 m 37.588274,-1.4644 -0.880975,0.5857 m -49.628269,0 c -0.7594,2.4555 -2.36014,2.2394 -2.93659,2.636 m 26.1356,-2.636 c 2.233566,2.2359 2.172192,2.7171 1.468293,3.8075 1.954884,0.6376 3.47809,-1.0248 2.936584,-3.2217 m 8.516094,-0.5858 c -0.602587,0.7076 -0.987279,1.1018 -1.174633,2.3431 m 2.055609,-2.3431 c 0.372652,0.3981 1.364337,1.0198 2.055609,3.5146 m 11.15902,-3.5146 1.76195,3.2217 m 1.174634,-3.2217 0.587317,0.5858 m -36.413645,-0.2929 -0.587317,1.7573 c 1.946955,1.0347 2.911623,0.3555 2.936584,-1.7573 m 7.047803,0 -1.174634,1.7573 m 21.437065,-1.7573 c 0.270459,0.5298 0.07459,0.3655 0.880975,0.8786 m -27.89755,-0.5857 c 0.505386,0.068 0.730328,-0.022 2.349267,0.5857 m 7.635119,-0.5857 c 0.235514,1.5277 -0.0041,2.1989 0.587317,3.2217 h 1.468292 m 14.095605,-3.2217 0.880975,2.343 -0.293658,0.2929 -1.468292,-0.8786 -1.761951,0.5857 m -17.032189,-2.0501 0.880975,0.8786 m -27.310228,-0.5858 c 0.81284,0.8687 1.00519,1.6747 2.64292,3.8075 0.42757,-0.8836 0.4587,-1.2131 -0.29366,-3.8075 m 25.254627,0 0.293658,0.2929 m 0.293659,-0.2929 0.880975,0.8787 -0.880975,0.2929 m 2.349267,-1.1716 2.349268,-0.2928 m 1.468292,0.2928 h 0.587317 m 4.698534,0 v 0.5858 m 2.055609,-0.5858 0.587317,0.5858 m 2.349268,-0.5858 0.293658,0.8787 m 0.587317,-0.8787 h 1.174634 m 1.174633,0 0.293659,1.7573 m -35.239007,-1.4644 c -0.69098,0.9583 -1.13029,2.6866 -0.41024,3.208 1.25392,0.9076 2.36982,-0.753 1.87853,-2.3293 m 2.349265,-0.2929 c -0.795515,-0.2115 -0.936475,-0.2955 -2.055605,0.5858 m 16.738526,-1.1716 v 1.4644 m 15.563897,-1.4644 v 0.8787 m -96.907279,-0.5858 1.59404,1.4656 1.92986,2.6347 c 1.59075,-0.1484 4.1817,-0.8042 3.52391,-3.2216 m 2.93658,-0.8787 v 0.5858 -0.5858 m 0.58732,8.7864 c -0.0714,1.1106 -0.17355,1.0852 -0.58732,1.7573 l -1.17463,-1.7573 1.46829,-0.2928 c 5.9e-4,-0.2607 0.009,-0.6769 0.0103,-1.4718 0.002,-0.6519 -0.0866,-1.0637 -0.0678,-1.7499 0.0173,-0.6291 0.14008,-0.8787 0.50832,-1.7573 0.46487,-1.11 0.63724,-1.2612 -0.0573,-2.4394 l -0.3935,-0.4894 c 2.11786,-0.5345 2.4312,2.063 3.5239,1.7573 l -0.29366,-0.2929 -0.29366,-0.2929 -0.29366,-0.2929 m 78.406799,-1.4644 c 0.423749,1.0734 0.976708,2.3609 1.468292,4.1003 m 6.754144,-4.1003 0.587317,1.1715 m -39.937546,-0.8786 1.76195,0.5858 m 17.032189,-0.5858 h 0.587317 m 14.095604,0 0.587317,0.8786 m 10.571704,-0.8786 0.880975,0.8786 m -97.788252,-0.5857 c 0.67189,0.2852 0.70067,0.4504 1.76195,0 m 1.46829,0.5857 1.4683,0.2929 m 56.969725,-0.8786 c 0.787299,0.043 1.404275,-0.049 2.936585,1.1715 -1.631273,0.4753 -2.313148,0.049 -2.936585,-0.5858 m 2.642926,0 c 1.693822,-0.4302 1.849755,0.4941 2.349268,1.1716 m 28.191209,-1.7573 -0.293659,0.5857 m -100.431179,0.5858 c 0.48924,-0.2999 0.99227,-1.0705 2.34927,0.2929 0.89008,-0.304 1.22456,-0.3374 1.76195,0.5857 m 60.787289,-1.7572 c -0.596126,0.4322 -0.812259,0.6988 -2.055603,0.8786 m 14.682916,-0.8786 c -1.319407,1.6102 -1.045131,0.8722 -2.466144,2.5509 -0.568229,0.671 -0.289253,1.4583 -1.151141,2.1677 -0.455464,0.3748 -0.993446,0.5336 -1.668567,0.7155 -1.771348,0.4768 -1.15349,0.1365 -2.936584,1.8879 1.842706,0.7949 2.654672,0.3468 2.936584,-1.4644 m 14.389263,-5.8576 -1.174634,0.8786 m -89.272159,-0.5858 c 0.32535,0.7981 1.77549,0.3169 2.93659,0.5858 m 7.92878,-0.5858 c 1.22103,0.876 1.85445,0.8737 3.23024,0.8787 m 2.05561,-0.8787 c 1.46036,1.166 3.36503,1.7166 3.23024,3.5146 v -1.1715 m 86.62923,-2.3431 0.587317,1.7573 m -108.066297,-1.4644 c -0.7434,1.0532 -0.82906,1.4545 -1.76195,2.6359 m 99.550202,-2.6359 2.055609,2.0502 m 6.460485,-2.0502 0.293659,0.2929 m -108.653615,0 h 1.17464 m 71.065329,0.2929 c -1.054823,0.6285 -1.202823,0.6894 -2.055603,0.2929 l -0.29366,-0.2929 m 23.49267,-0.2929 0.587317,0.5858 m -87.510203,-0.2929 -1.76195,0.8786 v -0.5857 m 4.99219,-0.2929 -0.88098,0.8786 m 1.76196,-0.8786 0.58731,0.8786 m 4.40488,-0.8786 0.29366,1.7573 m 61.96192,-1.7573 1.76195,0.5857 m 15.857555,-0.5857 0.587317,1.4644 c -1.862382,0.018 -2.524875,0.5269 -2.349267,2.0502 l -1.468292,-0.8787 c -0.100432,1.7128 2.46027,5.4189 3.523901,7.0292 m 11.746337,-9.6651 0.293658,0.2929 m -107.185319,0.2928 0.58732,-0.2928 m 2.0556,0 0.58732,1.7572 0.88098,-0.8786 m 14.38926,-0.8786 1.17463,-0.2929 m -0.29365,0.2929 1.76195,0.5857 v 0 m 50.802898,-0.5857 1.468292,1.1715 c -1.300907,0.3263 -1.570779,0.057 -2.349267,-0.2929 m 9.690728,-0.8786 0.880975,0.8786 m 3.230243,-0.8786 c -0.141837,0.8587 -0.397614,1.368 0.293658,2.6359 0.446067,-0.3395 0.796989,-0.4247 1.761951,-1.7573 -1.111204,-0.6804 -1.149967,-0.5465 -1.761951,-0.5858 m 3.230243,-0.2928 -1.468292,0.8786 m 2.055609,-0.8786 2.642926,2.343 m 0.880975,-1.7573 c 0.626667,-0.625 0.179719,-0.3526 0.880975,-0.5857 m 8.809753,0 v 0.5857 m -84.867276,-0.2929 -0.29366,1.1716 1.46829,0.5857 -1.17463,1.4644 0.29365,0.2929 c 0.8569,-0.9316 0.945,-1.8232 2.64293,-2.343 l -1.17463,1.4644 m 80.4624,-2.636 1.468292,1.7573 m -93.677032,-1.4644 c -0.71353,0.6663 -1.2319,1.8352 -2.64293,0.8787 -0.70434,0.7656 -1.50197,1.0983 -2.05561,3.2217 m 8.80976,-4.1004 c 1.1805,0.9519 1.87501,1.1838 2.93658,0.2929 m -1.46829,-0.2929 v 0.8787 m 3.23024,-0.8787 0.58732,0.5858 m 61.374605,-0.5858 c -0.04669,1.4337 -0.681875,2.4137 -2.055903,2.5531 -1.573715,0.1596 -1.702631,-0.4686 -2.93629,-1.6744 m 9.397069,-0.8787 1.761951,0.5858 m 4.698535,-0.5858 c -0.568523,0.6291 -3.204401,2.5592 0.587317,4.1004 0.04287,-1.9313 -0.07988,-2.6957 -0.293659,-3.5146 m -70.771675,-0.2929 0.58732,0.5858 m 38.175586,-0.5858 c 0.21643,1.0072 0.63959,0.7135 1.46829,1.0251 1.11796,0.4206 1.47946,1.0459 2.05561,1.6108 m 6.46049,0.5858 c -3.74092,-0.3075 -3.44021,-1.402 -4.11122,-2.0502 0.65368,-0.5512 1.54876,-1.6331 2.89312,-0.8692 1.10974,0.6305 0.78965,1.2365 1.2181,2.6265 0.96643,-0.9996 1.7411,-1.441 1.17463,-2.9288 m -68.128746,0.2929 0.88097,0.5857 m 13.80195,-0.5857 -0.29366,1.4644 m 6.16683,-1.4644 0.58731,0.5857 m 33.477066,-0.5857 c 1.79307,1.1674 2.12902,1.9626 1.46829,3.2217 l 1.46829,1.1715 c -0.57205,0.6329 -0.68276,1.2925 -2.93658,3.2217 m 15.56389,-7.6149 0.293658,0.2929 m 23.199016,-0.2929 1.174634,0.5857 m -77.232164,-0.2928 -0.29366,1.4644 m 53.152174,-1.4644 0.880975,1.7573 0.293659,-1.7573 m -69.890698,0.5857 0.58731,-0.2929 m 5.57951,0 -2.0556,4.3933 m 3.23024,-4.3933 c 1.79748,1.6367 2.17924,1.1651 2.93658,0.2929 m 4.11122,0.2929 h 0.58732 m 5.87317,-0.5858 1.46829,0.2929 m -15.27024,0 -0.185,1.7822 1.65329,-0.6106 m 11.45268,-1.1716 c -1.28857,0.9932 -1.67708,1.1718 -2.64292,1.7573 h 0.88097 m 41.993156,-1.7573 h 0.88097 m 23.199015,0 0.587317,0.5858 m -70.478018,-0.2929 -0.58732,0.5858 1.4683,0.2929 m 3.5239,-0.8787 c -1.39429,0.7794 -1.44363,0.9589 -1.76195,1.4644 m 35.826326,-1.4644 1.46829,2.3431 m 12.33365,-2.3431 c 0.49482,1.2503 -0.0423,1.9163 0.24256,2.7323 l 0.34476,0.4894 -0.29366,-1.1715 m 1.46829,-2.0502 0.293658,0.5858 m 24.079991,0.5857 1.468292,1.4644 -1.468292,-2.6359 -0.880975,2.3431 m -93.67703,-2.0502 v 2.343 m 4.99219,-2.343 0.58732,0.5858 -1.17464,1.1715 m 18.20683,-1.7573 c 1.12001,0.5764 1.86238,1.2359 3.23024,2.343 -0.40026,1.0527 -0.24638,1.096 0,1.7573 -1.66945,0.4669 -2.14899,0.5082 -3.32686,0.8031 l -0.4907,0.076 -0.58732,-1.7573 c -1.51851,1.1662 -1.72935,1.7517 -1.46829,2.9288 l 2.05561,-1.1715 m 50.215585,-4.979 c 0.243736,0.2431 1.088885,0.9808 2.027417,2.0507 1.042782,1.1883 1.341726,2.3443 1.496484,2.6354 m -61.374606,-4.3932 c -2.0145,1.5303 -1.00784,0.4982 -2.93658,1.2919 -1.71203,0.7046 -0.72975,0.7497 -2.64293,1.6369 v -1.4644 m 6.16683,-1.1715 0.58731,-0.2929 m 46.104376,0 1.76342,1.6981 1.16582,0.4671 1.47563,-0.9937 m 11.45268,-1.1715 0.587317,0.5857 m 6.460486,-0.5857 3.061095,2.3673 2.518415,3.1974 m -84.573619,-5.2718 h 0.58731 m 26.429256,0 -1.46829,3.2216 m 39.350228,-3.2216 c 0.714765,1.0233 1.364631,1.9535 2.642926,1.4644 l -1.174634,-1.4644 m 9.103412,0 c 0.720344,0.3022 1.045424,0.2509 2.349267,1.1715 -0.430797,0.601 -0.89742,0.9723 -0.587317,2.343 0.508617,-0.5111 0.969367,-0.8022 2.055609,-2.343 h -1.174634 m 6.166827,-1.1715 0.880976,0.2928 m 2.055609,-0.2928 0.587317,0.5857 m -85.454602,-0.2929 -1.46829,0.8787 m 4.9922,-0.8787 v 0.2929 m 6.16682,-0.2929 0.88098,0.5858 m 2.34927,-0.5858 c 0.99785,0.6397 1.69352,0.6748 2.64292,1.1716 l -0.88097,1.4644 c -1.01636,-0.8678 -1.39048,-1.2208 -2.64293,-0.8787 l 0.29366,0.2929 v 0.2929 0.2929 m 70.184357,-2.636 0.889198,2.9288 1.46007,2.636 m 1.174633,-5.5648 h 0.587317 m -19.675114,0.2929 -0.293659,0.5858 m 7.047802,-0.5858 0.880976,1.7573 m -77.52582,-1.4644 0.58732,0.5858 -1.17464,1.1715 m 12.62732,-1.7573 c -1.05277,1.4931 -1.52615,1.8109 -2.05561,2.343 m 3.23024,-2.343 c -0.47514,1.8818 -1.29268,2.5609 -2.05561,3.2217 0.44666,0.4434 0.86424,1.3259 2.64293,2.0502 l 0.88097,-0.8787 m 0,-4.3932 0.58732,0.5858 m 0.29366,-0.5858 0.29366,0.2929 m 1.17463,-0.2929 -0.88098,0.8786 m 2.93659,-0.8786 0.29366,0.2929 m 6.460476,-0.2929 -1.76195,2.0502 m 61.961928,-2.0502 0.293659,0.2929 m -24.079987,0 h 0.88097 m 18.206823,0 c -0.01204,0.8268 -0.0696,1.0204 0.293659,2.0501 -0.747067,0.4086 -0.792584,0.4086 -1.761951,0.8787 l 1.468292,2.343 -0.293658,-0.5857 m -80.462401,-4.3932 h 0.58731 m 5.28586,0.2928 -2.34927,2.3431 m 7.63512,-2.6359 0.88097,0.8786 m 4.69854,-0.8786 -0.58732,0.5857 m 34.358036,-0.5857 -2.05561,1.7572 m 35.239008,-1.7572 1.468292,1.4644 m -67.835096,-1.1716 -0.58731,0.5858 m 51.096558,-0.5858 0.587317,-0.2928 m 10.865362,0.2928 0.587317,1.7573 v 0 m 9.39707,-1.7573 0.293658,1.7573 m -83.398992,-1.4644 c -0.049,0.6362 0.0861,1.9073 -1.46829,1.1715 m 6.16683,-1.1715 0.88097,0.8787 m 2.05561,1.7572 c -0.55619,-0.3564 -1.13851,-1.2142 0.58732,-2.6359 m 3.5239,0 c 0.79053,0.1 0.84603,0.082 1.76195,0.5858 m -0.88097,-0.5858 -0.88098,1.4644 m 72.827286,-1.4644 0.293658,1.1715 m -70.478014,-0.8786 0.29366,0.5858 m 31.127786,-0.5858 h 0.58732 m -49.334616,0.2929 c -1.37755,1.6773 -1.49971,2.5565 -1.76195,3.8074 m 71.65265,-3.8074 c 0.988161,0.7193 1.299732,0.7861 2.349268,1.1715 -0.512434,0.5155 -1.075671,1.0974 -2.936585,3.2217 l 0.293659,0.2929 0.880975,-0.5858 m -56.088757,-3.8074 h 0.29366 m 55.501439,0 c -0.659851,0.6765 -2.707238,0.994 -1.174634,3.8074 m -53.739485,-3.5146 0.29366,0.2929 m 2.64292,0.2929 c 0.874806,-0.1514 1.664746,1.4363 2.360716,1.972 1.21869,0.9381 1.88294,0.2949 2.63148,-0.2147 l -0.29366,-0.2929 -0.88098,0.5858 c -0.84632,-1.0377 -1.11825,-1.3663 -2.05561,-2.3431 m 29.6595,-0.2929 -1.46829,2.3431 m 25.548284,-2.3431 c -0.801394,1.7954 -0.395852,2.2734 -0.39409,2.9265 8.81e-4,0.3154 0.323024,0.7841 -0.193227,1.4668 m -43.461447,-4.1004 h 0.29366 m 15.27024,1.1715 c 1.23659,-0.7345 1.63333,-0.936 2.34927,-1.1715 m 30.246812,0 c 1.839182,0.6203 3.915348,2.7039 4.992193,5.8576 m -81.343381,-5.5647 0.88098,0.5858 m 2.05561,-0.5858 c -1.48738,2.3328 -0.94294,3.533 -0.58732,4.979 -1.0698,0.4267 -1.18051,0.9311 -0.88098,2.0501 l 0.58732,-1.7572 m 4.99219,-5.2719 h 0.88098 m 7.92878,1.7573 0.58731,-1.7573 c -0.50744,0.6473 -1.20634,0.987 -0.29365,2.9288 l 1.468286,-1.7573 m 1.76195,-0.8786 1.76195,1.1715 m 22.6117,-1.1715 0.58732,-0.2929 m 26.429252,0 h 0.880975 m 0.880975,0 c 0.249903,0.2648 0.566467,1.5962 2.349268,1.4644 m -1.761951,-1.4644 1.468292,0.2929 m 2.055609,-0.2929 v 2.3431 m -76.644846,-2.0502 -0.29366,1.4644 1.17464,-0.8787 m 4.11122,-0.5857 h 0.88097 m 22.318036,0 h 0.58732 m 0.29366,3.8074 1.76195,-0.5857 c -0.38499,0.2964 -0.74795,1.4588 -2.64293,0 1.09916,-0.9217 0.83663,-2.0941 2.34927,-3.2217 l 0.4399,0.6268 c 1.40281,2.1643 2.5146,0.7494 3.67132,-0.041 m 1.46829,-0.5857 0.29366,0.2929 m -31.715106,0 c 0.31862,0.4422 0.77702,0.8227 0.8011,1.747 0.0417,1.61 -1.52556,4.2225 -2.56305,5.2821 m 10.5717,-7.0291 c -0.18941,0.8303 -0.22024,1.5174 2.64293,2.6359 m -1.17464,-2.6359 0.29366,0.2928 m 19.968766,-0.2928 1.4683,1.4644 m 13.50828,-1.4644 -2.93658,1.4644 m -39.056566,-1.1716 -0.88098,0.8787 m 14.976576,-0.8787 0.88098,0.8787 -0.29366,0.2929 -0.58732,-1.1716 m 28.77853,0 -2.64293,1.7573 m 10.57171,-1.7573 h 0.88097 m 16.73853,0 -1.174634,0.2929 m -74.295572,0 c -0.22641,0.5808 -0.15329,0.6713 -0.88098,1.4644 l -0.58732,-0.5857 m 4.40488,-0.8787 c -0.5092,0.7615 -0.78759,1.3414 -1.76195,2.636 m 8.80975,-2.636 c 1.42718,1.8566 0.27957,3.7823 2.64293,4.6861 -0.60934,1.0488 -0.60083,3.4264 -2.64293,6.7363 -0.48835,-2.2485 0.47602,-3.5286 0,-4.979 -0.71917,0.7542 -1.42923,1.1903 -2.5052,2.2095 -0.9027,0.8549 -1.02663,1.2026 -0.43138,2.1837 l 0.58732,-1.1715 m 20.556086,-9.6651 c 0.83164,1.2231 0.88009,1.3241 1.17463,1.7573 m 33.770716,-1.7573 c 1.334971,0.7574 1.611304,1.0108 2.349268,1.4644 m -67.24777,-1.1715 -1.76196,2.6359 m 26.429256,-2.6359 c 1.70469,0.5348 1.96458,1.0529 3.23025,2.6359 m -0.88098,-1.7572 1.17463,-0.8787 m 7.34147,0 0.29365,0.2929 m -25.548276,0 c -0.047,0.5904 -0.0379,1.1206 -0.38176,2.343 -0.49481,1.7591 -1.86443,3.6833 -0.49921,5.2719 m 9.984376,-7.6149 c -0.61551,2.1527 0.0857,2.4701 -0.29366,3.8074 1.55757,-0.7433 2.21008,-0.4478 3.81756,-3.2216 l 2.05561,1.1715 0.58732,-1.7573 m -4.99219,0 -0.58732,0.5858 m 2.34927,-0.5858 h 0.88097 m -0.29366,0 v 0.5858 m 1.17464,-0.5858 0.29366,0.2929 m 48.453634,-0.2929 0.880975,0.8786 0.880975,-0.8786 m -66.3668,0.2929 c -0.28132,0.2987 -0.94264,0.9694 -1.17757,1.4717 -0.64458,1.3777 0.0493,1.8657 -1.46535,1.75 m 21.730716,-3.2217 2.05561,0.2929 m 29.36584,-0.2929 c -1.96193,1.7485 -2.92601,1.9602 -3.5239,3.2217 l 1.5699,0.9676 0.70067,2.2218 1.26978,1.1461 2.038571,0.4888 2.056196,-0.4311 c -0.949691,-0.9472 -0.796989,-0.7949 -1.468292,-1.4644 -0.675708,0.922 -0.714465,1.4998 -1.761945,2.9288 l -0.29366,-1.1715 m 9.103407,-7.9078 h 0.880976 m 5.57951,0 c 0.04464,1.0426 0.06637,1.0157 0.293658,1.7573 l -0.587317,-0.5858 m 2.936585,-1.1715 2.936584,3.5145 m -83.692649,-3.2216 v 0.2928 m 3.81756,-0.2928 -1.17463,2.343 m 13.50829,-2.343 h 0.58731 m 4.404876,0 h 0.88097 m 13.50829,0 c -0.0341,0.9489 0.14742,2.133 0.92121,2.5105 0.56235,0.2742 1.91113,0.307 2.77184,0.8019 1.5003,0.8635 1.7552,0.6637 2.47378,0.956 0.77496,0.3154 2.7736,2.7645 3.98671,4.1753 0.79082,0.9197 1.2918,1.4442 1.88646,2.1 1.28652,-1.0828 1.36845,-1.8115 1.49971,-2.9113 0.0247,-0.2076 0.26518,-0.5728 0.51097,-1.0169 0.76204,-1.3759 -0.0426,-1.998 -0.85925,-2.1925 -0.55442,-0.132 -1.62246,0.01 -1.73875,0.8488 l 0.29366,-0.2929 m -10.27805,-4.9789 c 0.96555,1.3501 1.12149,1.7575 1.4683,2.343 m 24.6673,-2.343 -0.58731,1.4644 0.29366,-0.5858 m -55.501446,-0.5858 1.17464,0.5858 m 22.611696,-0.5858 0.88097,0.8787 m 47.866323,-0.8787 1.174634,2.3431 m -69.009723,-2.0502 -1.66886,3.4873 -1.25334,1.4621 0.27927,0.6154 0.29366,-0.8787 m 14.095606,-4.6861 0.88097,1.4644 m 0,-1.4644 1.17463,1.1715 c -0.28396,0.2938 -1.37843,1.0544 -1.41367,2.0508 -0.0229,0.6478 0.29924,1.0151 0.74795,1.7459 0.56529,0.9208 0.37089,0.9744 1.5467,0.8894 l -1.80512,-0.2794 -0.97876,2.9154 -0.74002,4.3932 m 25.54828,-12.8868 v 0.2929 m 2.64293,-0.2929 -1.76195,0.8787 m 14.0956,-0.8787 -0.58732,0.5858 m 4.404879,-0.5858 -0.587317,1.4644 1.468293,-0.5857 m 4.698534,-0.8787 c 1.161419,1.279 1.289455,1.7099 1.761951,2.6359 m 2.055609,-2.6359 c -0.20145,2.0396 0.458401,2.6339 1.468292,4.6861 m -67.835087,-4.3932 0.88097,0.8786 m 8.22244,-0.8786 c -0.95263,1.0939 -1.39018,3.4701 -1.89704,6.1505 -0.21554,1.1399 -0.7544,2.86 -1.03955,4.1003 m 3.23025,-10.2508 1.174626,1.1715 1.17463,-1.1715 m 2.64293,0 -0.58732,0.5858 m 2.64293,-0.5858 c -0.19998,0.9715 -0.18765,2.3975 -1.46829,3.2217 l -0.29366,0.2929 v 0.2928 m 35.53267,-3.8074 0.58731,0.5858 m 11.893169,-0.2929 -0.09779,0.2929 0.09779,-0.2929 m 3.964388,-0.2929 h 0.587317 m -49.334614,0.2929 1.46829,0.8786 -0.58731,-0.8786 m 5.28585,0 h 0.58731 m 25.25463,0 -0.29366,0.8786 m 18.50048,-0.8786 2.349267,2.6359 m -77.232163,-2.343 -0.29366,0.5857 m 3.52391,-0.5857 c 0.15945,1.0953 0.333,1.2986 0.88097,2.0501 m 43.755106,-2.0501 h 0.29365 m 13.214632,0 c -0.831054,0.5509 -1.009011,0.5904 -2.055612,1.1715 0.54298,0.9308 0.5098,1.1762 0,2.0501 l 1.174637,0.5858 2.349267,-3.5146 m 9.39707,-0.2928 h 0.587317 m 0.587316,0 0.880976,1.1715 0.880975,-0.8787 m 4.111218,-0.2928 0.587317,0.5857 m -78.113139,-0.2929 v 0.8787 m 22.905356,-0.8787 0.29366,0.2929 m 3.23024,-0.2929 0.88098,1.7573 -1.17464,0.5858 c 1.91466,1.9163 2.32813,2.5229 1.76195,4.6861 m 20.55609,-7.0292 c -2.85964,2.8304 -3.09016,3.2343 -3.81756,4.1004 m 12.04,-4.1004 -0.58732,2.3431 v 0.2929 h 0.58732 m 9.984384,-2.636 0.880975,0.2929 m 1.174634,-0.2929 -0.587317,0.5858 m 4.698535,-0.5858 0.293659,0.2929 m -52.85852,0 0.58732,0.5858 m 6.46049,-0.5858 -0.58732,0.5858 m 18.50048,-0.5858 -2.34927,2.0502 m 3.81756,-2.0502 h 0.29366 m 8.5161,0 -0.29366,0.2929 m 6.166822,-0.2929 c -0.224648,0.874 -0.496282,2.0789 -0.420225,2.923 0.159457,1.7748 0.806386,1.2749 2.182176,1.1774 -0.04287,-0.055 -0.597008,-0.5609 -0.791116,-0.8137 -0.504799,-0.656 -0.368541,-0.9343 0.497458,-0.6508 l 0.293658,-0.2928 0.293658,-0.2929 m 5.579511,-2.0502 0.880975,-0.2929 m -0.293659,0.2929 2.349268,2.6359 m -55.207786,-2.0501 c -2.117856,0.06 -1.894966,0.818 -2.142526,2.343 -0.29248,1.8042 -1.36375,4.1727 -0.79405,6.1505 m 10.865356,-8.7864 c 0.8983,0.8871 0.73004,1.1238 0.58732,1.7573 v -0.8787 m 33.477057,-0.8786 -0.293659,0.8786 m 5.285852,-0.8786 -0.587317,0.8786 m -44.048763,-0.5857 v 0.5857 m 36.7073,-0.5857 -0.29365,1.1715 m 1.46829,-1.1715 h 0.58731 m 8.222439,0 c 1.450672,1.4169 3.506281,3.3895 4.992193,4.6096 1.018701,0.8368 1.337614,1.1256 2.642926,0.9551 h -0.880975 m 5.873168,-5.5647 0.293659,0.2929 m -81.049716,0 v 0.2928 m 12.62731,-0.2928 -0.88098,2.343 m 13.214626,-2.343 c 0.0537,0.866 0.0954,2.4376 -0.23522,3.5145 -0.48248,1.5716 -0.3424,3.3752 0.23522,5.2719 1.03926,-0.8634 1.28534,-2.6298 0.9635,-3.806 -0.25637,-0.936 -0.63255,-1.3124 -0.9635,-1.7587 m 8.5161,-3.2217 -0.58732,1.4644 m 15.27024,-1.4644 -1.46829,1.4644 m 8.51609,-1.4644 c -0.88714,1.7092 -0.34564,1.7836 0.83869,2.7879 0.37412,0.3172 1.20987,0.5509 0.92326,0.4338 m 17.913163,-3.2217 1.468292,2.0501 m 2.642926,-2.0501 0.293658,0.2928 m -80.168745,0 v 0.2929 m 19.968766,-0.2929 c -0.42316,0.7592 -1.11208,1.651 -0.29366,4.3933 1.07479,-2.7959 1.00255,-3.5348 0.58732,-4.3933 m 2.05561,0 0.88098,0.8787 m 20.84974,-0.8787 v 0.2929 m 14.09561,-0.2929 -0.29366,0.2929 m 2.93658,-0.2929 v 0.8787 m -53.739486,-0.5858 v 1.4644 m 23.786336,-1.4644 1.17463,0.5858 m 50.215588,-0.5858 0.293659,0.2929 m -31.715107,0 c -0.37853,0.7524 -1.04513,2.814 0.824,2.2417 0.73914,-0.2261 0.94881,-1.0617 1.41749,-1.491 0.66191,-0.606 1.72789,-0.6904 2.16338,-0.7507 m 3.52391,0 -0.58732,0.5858 m -46.691686,0.2928 1.17463,-0.5857 m 9.103406,0 c -0.52447,1.5725 -0.81255,1.8876 -0.29365,3.8074 m 2.64292,-3.8074 c 0.40907,0.7228 0.40085,0.9753 1.17464,2.343 m 4.99219,-2.343 -0.29366,0.2929 m 15.5639,-0.2929 0.29366,0.2929 m 15.56389,-0.2929 0.587317,0.5857 m 2.055609,-0.5857 -1.174634,2.6359 m 9.984386,-2.0502 1.761951,-0.2928 0.293658,0.8786 v 0 m -43.167787,-0.8786 -0.29366,0.8786 m 6.16683,-0.8786 0.88097,2.0501 m 19.0878,-2.0501 0.58732,0.8786 m -55.207786,-0.5858 v 0.5858 m 52.271196,-0.5858 c -0.73708,1.5066 -1.58663,2.083 -2.93658,1.4645 m 9.984385,-1.4645 0.880975,0.8787 m -3.81756,-0.5858 -0.58731,0.8787 m 7.341455,-0.8787 -0.293659,0.2929 m 2.349268,-0.2929 0.293658,2.3431 0.880975,-2.0502 m -0.587317,-0.2929 -0.880975,1.7573 m -60.787291,-0.5857 -0.29366,1.4644 c -1.09681,-0.7132 -2.18305,-1.7641 -0.29365,-2.3431 m 4.69853,0 v 0.2929 m 49.334616,-0.2929 v 1.1715 l -1.4683,-0.8786 m 2.34927,-0.2929 -0.29366,1.4644 0.29366,0.2929 m 5.285851,-1.7573 v 0.2929 m -44.636081,0 0.29366,0.2929 m 22.02438,-0.2929 1.4683,1.7573 -1.17464,1.4644 m 10.5717,-3.2217 c 0.86659,1.2544 1.34437,2.766 3.23025,1.4644 v 0 m 3.817555,-1.4644 v 0.2929 m 10.865362,-0.2929 -0.293659,0.2929 m -67.247774,0 c 0.23258,0.6962 -0.28808,0.01 0.58732,0.8786 m 0.29366,-0.8786 -0.58732,0.5857 m 26.722916,-0.5857 0.29365,1.4644 0.88098,-1.4644 0.88097,2.343 c -1.65535,0.4352 -0.71124,1.5089 0,2.636 l 0.29366,-2.3431 m 29.072186,-2.6359 -0.880976,0.8786 m 10.571704,-0.8786 0.587317,0.5857 m -23.492671,-0.2928 c -0.681,0.9442 -1.1162,1.7174 -0.7873,2.8869 0.1715,0.6103 1.45919,1.3554 1.53965,2.109 0.0793,0.7451 -0.1715,1.1194 -0.51067,2.0332 -0.51243,1.3801 -0.71065,1.5488 -1.79396,2.5926 -0.98141,0.9454 -3.29338,1.9728 -3.95617,2.5946 -1.84065,1.726 -0.90094,2.7197 0.2226,3.8921 l -2.05561,1.7573 2.05561,1.4644 v -0.5858 l -1.17464,1.1716 m 49.334617,-19.9159 v 1.4644 l 0.587317,-1.4644 m 1.468292,0 0.293658,2.9288 c 0.275158,-0.9285 0.292778,-1.4958 0.293659,-2.9288 m 0.880975,0 0.587317,2.0501 0.293658,-2.0501 m 1.468292,0 0.293659,2.6359 m -42.286814,-2.3431 -1.17463,0.2929 m 3.5239,-0.2929 v 0.5858 m 4.992191,-0.5858 c -1.233366,1.7846 -0.424337,1.7236 0.4214,2.7689 0.428447,0.5299 0.56911,1.2032 1.137632,1.632 0.520363,0.3927 1.203119,0.6056 1.671211,0.871 -0.463981,0.9592 -0.631953,1.5936 0.293658,4.6861 m -3.230243,-9.958 c 0.903,1.3113 0.735321,1.6422 0.293659,2.636 m 4.111218,-2.636 v 0.5858 m 19.968773,-0.5858 -0.293659,0.8787 m 0.880976,-0.8787 -1.844763,7.6149 -0.03289,2.8846 1.877652,0.63 c -0.953803,-0.989 -1.096227,-0.7708 -1.761951,-0.5857 m 4.404877,-10.5438 v 0.2929 m 2.055609,-0.2929 c 0,2.0241 -0.08575,2.8427 0.587316,4.1004 l 0.293659,-1.1716 m 2.936584,-2.9288 0.293659,1.1716 m 1.468292,-1.1716 v 0.8787 m -91.327766,-0.5858 v 1.1715 m 26.722916,-1.1715 c 2.25823,1.7898 5.24268,4.4785 7.00082,5.9809 0.38851,0.3319 0.71212,0.5802 0.92796,0.7554 1.1341,-1.2231 1.3288,-1.0778 1.46829,-2.9288 m 2.64292,-3.8075 2.05561,0.5858 m 3.81756,-0.5858 c 0.982,1.0049 0.8845,1.3224 1.97045,2.042 1.63979,1.0866 2.48318,0.2996 2.72809,-1.1633 m 4.404871,-0.8787 -0.880975,0.8787 m 4.111218,-0.8787 -0.293659,0.2929 m 1.468292,-0.2929 v 1.1715 l 0.880976,-0.8786 m 15.563896,-0.2929 0.293659,0.5858 m 1.468292,-0.5858 -0.293659,0.5858 m 1.761951,-0.5858 -0.293658,2.0502 1.174633,-2.0502 m 3.523901,0 c -0.344167,1.3238 -1.034558,3.0747 -1.104743,4.3932 -0.115407,2.172 0.973772,3.1778 -0.06989,5.5648 m 1.76195,-9.958 c -0.289253,2.2341 -0.639001,4.1686 -1.174633,5.8576 m -87.510208,-5.5647 v 0.2929 m 16.738526,-0.2929 c 0.5142,0.5128 0.22759,0.227 0.88098,0.8786 m 28.77852,-0.8786 c -0.50656,0.4891 -0.98962,1.2954 -2.64292,1.7573 m 18.206818,-1.7573 0.587317,1.1715 m 11.746337,-1.1715 -0.880975,0.8786 m 1.761951,-0.2928 2.302575,2.0428 0.927667,1.4717 0.880976,-2.343 m -3.523902,-1.4644 3.523902,-0.2929 m -76.644842,0.2929 0.29366,1.7573 0.58731,-1.1716 m 16.738526,-0.5857 0.29366,1.4644 m 9.39707,-1.4644 0.58732,0.5857 m 12.04,-0.5857 h 0.58731 m 5.28585,2.9288 c 0.34799,-0.4098 0.83546,-1.004 1.4683,-2.9288 1.69764,1.6928 3.14713,3.1315 4.11121,4.3932 0.47896,-0.5099 1.6627,-0.8637 0.88098,-2.6359 m -2.34927,-1.7573 -0.29366,0.8786 m 1.4683,-0.8786 -0.29366,0.2929 m 11.746331,-0.2929 c -0.260181,0.7052 -0.778782,1.2087 -0.293658,2.6359 l 1.174633,-0.8786 -1.174633,2.0501 m 14.095604,-3.8074 -1.468292,0.2929 m 2.642926,-0.2929 -0.587317,1.1715 m 9.690728,-1.1715 c -0.02995,1.441 -0.559126,3.6888 -0.544149,4.9675 0.01175,0.9873 0.509204,1.6513 0.654271,2.9414 0.206442,1.8349 0.929723,1.7131 1.064512,3.5134 l 0.293658,0.2929 h 1.174634 l 0.293658,-0.2929 c 0,-2.4757 0.07958,-4.5425 -0.880975,-5.5647 -0.262237,0.8848 0.360025,1.4878 -0.880975,3.8075 m -74.589236,-9.3722 0.58731,1.1715 v -0.5858 m 0,-0.5857 1.17464,4.6861 m 11.74634,-4.6861 v 0.8786 m 4.11121,-0.8786 -0.29365,2.9288 m 34.06437,-2.9288 -0.08487,4.9291 -1.383425,2.9786 m 8.516094,-7.9077 c 0.144187,0.8871 0.602294,1.7461 1.164062,2.3922 0.518307,0.5963 0.732091,1.3625 2.069411,1.6308 0.893309,0.1792 1.803357,-0.227 2.136072,-0.3216 1.549929,-0.4396 2.750698,-0.7788 3.440208,-1.9442 l -0.587317,0.2929 m -6.166827,-2.0501 -0.293658,0.5857 m 4.404876,-0.5857 -0.587317,1.1715 m 5.579511,-1.1715 -1.468293,3.8074 0.587317,-0.8786 m 5.873169,-2.9288 c 0.216426,0.9304 0.315095,2.0217 0.385573,2.9291 0.07283,0.9345 0.409067,1.4093 1.098576,1.9511 1.640376,1.2893 2.378046,-0.9351 2.33341,-1.9514 l -2.055609,1.1715 v -1.1715 m -74.589243,-2.636 0.29366,2.0502 m 46.104374,-2.0502 -1.174633,0.5858 m 12.333654,-0.5858 -0.587317,0.5858 m -72.533634,-0.2929 v 0.2929 m 30.246816,-0.2929 -1.46829,1.1715 m 22.6117,-1.1715 0.29366,1.1715 m 5.285851,-1.1715 c 0.09573,0.8585 0.198219,1.3326 -0.880981,2.636 1.524974,0.48 2.347511,0.5204 3.230248,1.1715 -1.223087,0.9302 -1.069797,1.1185 -0.880975,1.7573 l 0.293659,0.2928 v 0.2929 l 0.293658,0.2929 m 9.690728,-6.4434 c 0.811378,0.8453 2.109055,2.3419 2.596234,3.2217 0.937945,1.6937 0.992566,2.0716 2.395959,2.0502 l -1.76195,-1.1715 m 4.404876,-4.1004 c -0.444011,0.2952 -0.587317,0.7135 -0.587317,0 m 2.936585,2.3431 1.174633,-2.0502 m -66.366808,0 c 0.0564,1.2553 -0.0244,1.8654 -0.29366,3.2217 m 1.76195,-3.2217 0.88098,0.2929 m 45.810716,-0.2929 0.587317,0.5858 m 10.865362,-0.5858 h 0.587316 l -0.293658,1.1715 m 1.761951,-1.1715 h 0.293658 m 18.206823,0 0.587316,4.6861 m -77.525831,-4.3932 v 0.5857 m 38.46926,-0.5857 c -0.16974,0.9111 -0.42463,1.3824 0.58731,2.0502 v 0 m 3.23025,-2.0502 c -0.669541,0.6678 -0.534752,0.5333 -1.468292,1.4644 m 13.508288,-1.4644 0.880975,1.4644 c -0.416408,-0.1385 -0.303937,0.2624 -0.587317,-0.5858 m 0.293658,-0.8786 h 0.293659 m 8.809753,0 v 0.2929 m 7.34146,-0.2929 c -0.01498,1.6688 -0.545323,2.8913 -0.587316,4.6861 m -54.033158,-4.3932 v 2.9288 m 32.596092,-2.636 v 0.2929 -0.2929 m 8.516095,-0.2928 0.880975,1.1715 m 0.293658,-1.1715 -0.293658,0.2928 m 5.873169,-0.2928 -0.293659,0.2928 m -80.462408,0 v 1.7573 m 0.88097,-1.7573 v 1.1716 m 48.453636,-1.1716 -2.0556,2.0502 c 0.89859,0.6918 2.29376,1.2386 4.40487,0.2929 m -0.58731,-2.3431 0.29365,1.1716 1.17464,-1.1716 m 14.095606,0 1.761951,1.7573 m 22.31804,-1.7573 -0.587317,0.8787 m -87.216556,-0.2929 1.76195,0.5858 v 0.2929 0.2928 m 8.516096,-1.4644 h 1.46829 m 12.62731,0 0.58732,2.0502 m 12.62731,-2.0502 c 2.09467,1.6753 2.69637,0.6078 3.5239,0 m 13.508295,0 1.174633,2.0502 m 12.920971,-2.0502 v 0.5858 m 2.349268,-0.5858 -0.587317,0.5858 m 3.523901,-0.5858 -0.293658,0.2929 m 18.206822,-0.2929 h 0.587317 m -92.502408,0.2929 c -0.6854,0.9501 -0.8795,1.4547 -0.88097,3.5146 m 2.34927,-3.5146 v 0.2929 m 10.571696,-0.2929 0.58732,1.1715 m 2.34926,-1.1715 -0.29366,2.0502 m 35.53267,-2.0502 0.88098,0.8787 m 9.690732,-0.8787 0.880975,0.8787 m 8.222436,-0.8787 c -0.744424,1.957 0.300119,2.0171 1.164356,2.9276 0.519775,0.5474 1.729354,1.7884 2.359545,2.3443 1.081544,-2.0194 0.714471,-2.3082 0.293659,-3.5146 m 20.849748,-1.7573 1.76195,3.8075 v -2.636 m -92.502407,-0.8786 v 3.2217 m 32.008766,-3.2217 c -0.49716,0.6499 -0.40818,0.381 -0.88097,1.4644 l -0.88098,-0.8786 m 19.968778,-0.5858 v 0.5858 m 5.285852,-0.5858 0.293658,0.2929 m 2.642926,0 c 0.751472,0.4246 0.668366,0.8982 1.052472,1.6243 0.303642,0.5737 0.82195,0.9044 1.302375,1.3408 1.249223,1.1346 1.72583,1.4336 2.343688,1.721 l -1.761951,-3.8075 m 3.523901,-1.1715 0.587317,0.5858 m 18.206823,-0.5858 0.587317,0.5858 m -59.906326,-0.2929 v 0.2929 m 22.6117,-0.2929 c -1.7317,1.9342 -1.07743,2.0455 -0.29366,3.5145 l 2.642933,-2.6359 m 7.635119,-0.8786 -1.174634,1.1715 m 31.71511,-1.1715 0.293659,0.5857 m 1.468292,-0.5857 c 0.122749,0.6335 0.545323,4.31 -0.880976,2.9288 m 1.761951,-2.9288 v 0.5857 m 1.761951,-0.5857 2.055609,0.2929 m -97.78826,0 v 0.5857 m 27.016576,-0.5857 v 0.2928 m 11.74634,-0.2928 c -0.25813,1.6134 -1.19461,1.7197 -2.34927,1.7572 m 14.68292,-1.7572 0.88097,1.4644 m 4.698544,-1.4644 0.587317,2.9288 m 4.111218,-2.9288 c -0.744718,0.9644 -0.85484,1.2368 -0.880976,2.343 m 32.008769,-2.343 0.293658,2.6359 m -85.160946,-2.3431 v 2.9288 m 46.691692,-2.9288 v 1.1716 m 12.627313,-1.1716 -0.880976,1.4644 m 29.365843,-1.4644 0.293659,1.7573 m 4.111218,-0.5857 c 0.486004,1.7083 0.968191,2.7463 0.880975,4.1003 -1.058932,-1.1982 -2.341926,-6.253 0.293658,-4.6861 m -82.811676,-0.2929 v 0.2929 m 24.96096,-0.2929 h 1.17464 m 24.079991,0 0.293658,0.2929 m 7.341461,-0.2929 c 0.171203,0.9897 0.5001,1.2547 1.468292,1.4644 -0.05668,1.7424 -0.370597,1.7485 -1.01459,2.9288 -0.471028,0.8629 -0.497751,1.1294 -0.435202,2.0502 0.102194,1.5007 1.574597,4.2228 2.918084,4.979 0.680113,-2.3003 -0.06402,-3.8356 -1.76195,-2.636 v 0 m 19.968773,-8.7864 c 0.396732,1.4946 1.018701,1.8683 1.468292,2.6359 l -0.587317,-0.5857 m -95.145328,-1.7573 0.29366,2.9288 m 2.0556,-2.9288 v 1.4644 m 11.746336,-1.4644 0.58732,1.1715 m 17.32585,-1.1715 0.88097,1.1715 m 12.92097,-1.1715 0.58732,0.5858 m 0.58732,-0.2929 0.88097,-0.2929 m 2.055614,0 1.468292,1.4644 m 23.786333,-1.4644 -0.587317,1.1715 m 9.103411,-1.1715 -0.587316,0.5858 m 8.222435,-0.5858 c 0.177664,2.1492 0.567055,2.8339 2.055609,2.343 m 1.761951,-2.343 0.293658,1.4644 m -37.29462,-1.1715 h 0.587317 m 9.984387,0 -1.468293,1.4644 m 30.540477,-0.8787 1.76195,3.2217 c 0.541507,-1.7868 -0.803155,-3.0714 1.468293,-3.8074 m -56.088761,0.2929 c 0.47014,0.5307 0.42668,1.5519 2.34926,2.0501 m 5.28586,-2.0501 c 0.474552,0.8525 0.63577,1.5303 1.174634,3.2216 m 17.619505,-3.2216 1.710854,2.6359 1.434228,2.0446 1.259795,1.47 0.587317,-0.8787 m 12.039995,-5.2718 v 0.5857 m 0.587317,-0.5857 v 0.2928 m -74.589245,0 -1.46829,2.9288 0.29366,-0.2928 m 10.86536,-2.636 0.58732,0.8787 m 11.45267,-0.8787 1.76195,2.9288 m 21.437074,-2.9288 0.880975,2.636 c 2.479652,0.3432 3.100739,0.1441 3.523901,0 m -2.055609,-1.4644 1.174634,-1.1716 m 15.270238,0 -0.587317,3.8075 m 5.873169,-3.8075 -0.587317,0.5858 m -85.748264,-0.2929 v 0.2929 m 16.151216,-0.2929 0.29366,0.2929 m 12.33365,-0.2929 v 0.2929 m 17.6195,-0.2929 c 0,0.4827 0.001,1.0588 -0.003,1.7588 -0.003,0.572 -0.0972,1.455 0.264,1.8454 1.19108,1.2878 2.33106,-0.7064 2.67552,-1.554 m 4.698538,-2.0502 c -2.373058,2.3179 -4.817768,4.0637 -3.817568,6.1505 -1.92463,1.0154 -2.48493,1.9872 -3.81756,3.5146 l 0.29366,0.2929 c 0.72387,-0.5301 0.88392,-0.6277 1.76195,-1.7573 l 0.58732,1.7573 v -0.8787 m 26.722922,-9.0793 v 0.2929 m 14.095604,-0.2929 0.293365,8.2007 2.94e-4,3.2217 m 11.452678,-11.4224 v 0.5858 m 1.468292,-0.5858 c 1.032503,4.4922 2.27644,8.9543 1.761951,13.4725 m -89.565826,-13.1796 0.29366,1.1715 m 20.55609,-1.1715 c 0.4722,2.2446 1.36316,3.0673 1.76195,3.5146 m 57.557056,-3.5146 v 1.1715 m 10.865362,-1.1715 h 0.293658 m -89.565826,0.2929 v 1.1715 m 71.065346,-1.1715 c 0.393502,1.7072 0.04405,4.9069 0.587316,6.7362 0.446361,-0.8332 0.571753,-1.2271 0.587317,-2.6359 m 14.682922,-4.1003 c 1.477395,1.5602 1.460363,3.8107 2.055609,5.5647 1.273596,-1.9266 0.157107,-2.652 -0.293659,-4.6861 m -44.929739,-0.5857 0.880975,1.1715 m 7.928778,-1.1715 -2.349268,1.1715 m 15.563897,-1.1715 0.880975,1.4644 m 9.984387,-1.4644 -0.327723,2.6359 -0.316564,2.343 -0.530347,2.9288 c -0.651041,-1.168 -0.293952,-2.7404 -1.174634,-4.3932 -0.332421,1.1303 -0.316564,1.5596 0,2.636 m 5.57951,-6.1505 c 0.525943,2.1778 0.527117,3.3204 -0.293658,4.6861 -0.449297,-1.2307 -0.505093,-1.3807 -0.880975,-2.0502 -0.484537,1.6395 -0.15887,2.5812 0.880975,3.8074 -1.416902,0.963 -1.32763,1.6425 -0.880975,3.5146 m -31.421452,-9.6651 v 1.1716 m 37.588279,-1.1716 v 0.5858 m 4.404876,-0.5858 0.293658,2.0502 m -34.358036,-1.7573 -0.372065,0.4894 c -0.673946,1.5939 0.584674,1.7576 1.679139,3.3181 0.84926,1.2113 0.945874,1.8899 1.629511,2.9288 m 17.325847,-6.7363 c 0.03847,1.3534 0.239332,1.6952 0.587317,2.3431 m 0,-2.3431 0.587317,1.7573 m -19.675115,-1.4644 h 1.468292 m 15.563897,0 0.293658,2.3431 m 4.404877,-2.3431 v 1.7573 m 2.642925,-1.7573 1.468293,6.7363 m 7.34146,-6.7363 0.293659,0.8786 1.174633,0.2929 m -92.502405,-0.8786 v 0.2929 m 40.231205,-0.2929 -0.587317,0.8786 m 12.627313,-0.5857 1.174634,1.1715 -1.468293,1.4644 c 1.11972,0.031 1.1623,-0.3257 1.468293,-0.8786 m 3.817559,-1.7573 -0.293658,2.0501 m -63.136566,-1.7573 c 0.54738,2.6597 0.0573,2.2306 1.05805,3.4227 0.44695,0.5324 1.46095,0.7948 2.15898,0.9422 0.45076,0.095 1.17639,0.029 1.18785,0.028 l -1.17464,-1.7573 c 0.7967,0.031 1.6994,0.2117 1.46829,1.7573 m 1.17464,-4.3933 -0.58732,0.8787 m 39.937552,-0.8787 v 0.2929 m 7.635119,-0.2929 c 0.404955,0.8916 0.426392,1.0573 1.174633,1.7573 v -1.7573 m 3.81756,0 v 2.0502 m 35.826328,-2.0502 -0.880975,1.7573 -0.293659,-1.4644 m 4.992194,-0.2929 v 0.8787 m 0.587317,-0.8787 0.293658,2.3431 m -67.835097,-2.0502 c 0.94939,1.0239 1.19196,2.2423 4.11121,3.8075 l -2.0556,2.0501 -0.88098,-2.6359 -3.23024,0.8787 v 0.2928 l 0.29366,0.2929 0.29365,0.2929 m 15.563905,-4.979 v 0.8787 m 3.230242,-0.8787 v 0.5858 m 51.390225,-0.5858 v 0.2929 m -97.494602,0 0.29366,1.4644 -0.29366,-1.4644 m 22.90536,0 c 0.081,0.2876 0.53034,1.3241 1.46829,2.3431 0.9817,1.0663 1.14204,1.351 1.54317,2.0003 0.50422,0.8166 0.95792,1.0485 0.51244,2.3929 -0.26899,-0.8778 -0.25548,-0.8634 -0.29366,-1.7573 m 27.897555,-4.979 0.293658,4.1003 m 43.755106,-4.1003 0.293659,4.979 m -68.422418,-4.6861 h 1.47563 l 0.87305,9e-4 2.0562,0.292 m 25.254625,-0.2929 c 0.342112,1.6064 0.892428,1.6392 1.761951,1.4644 m 0.293658,0 c 0.668954,-0.6247 0.985518,-0.9759 2.349268,-1.7573 m 6.460485,0.2929 v 0.8786 l 1.468292,-0.5857 m 9.690728,-0.2929 c 0.76498,1.4295 1.060694,2.1178 0,4.1003 m 5.285852,-4.1003 c -0.69509,1.5241 -0.273102,3.1004 0.587317,5.2718 m 1.174633,-5.2718 c 0.651335,1.9532 1.796309,4.7933 2.055609,7.322 m 3.81756,-7.322 v 1.1715 m -88.391188,-0.8786 c 1.00284,0.294 1.29797,0.2196 2.34926,0.8786 m -0.29365,-0.2929 4.99219,-0.2928 m 21.14341,-0.2929 c -0.50656,1.3273 0.25636,1.9547 0.88097,2.6359 0.73503,-1.0037 0.68364,-1.6012 0.29366,-2.343 m 1.76195,-0.2929 h 0.58732 m 2.34926,0.8786 -0.88097,2.0502 -0.58732,-0.5858 c 0.454,-0.4604 0.75118,-1.5429 2.936591,-2.343 m 47.572665,0 v 0.2929 m -86.335586,0 -0.58731,0.5857 m 50.215593,-0.5857 h 0.587317 m 20.55609,0 0.293658,1.4644 m -69.890708,-1.1716 c 1.76283,1.0579 0.8196,3.396 3.23024,2.636 -0.51302,-1.4126 -0.50891,-1.7573 -0.29366,-2.636 m 83.986317,0 0.880975,4.3932 m 4.111218,-4.3932 v 0.5858 m -95.73265,-0.2929 -0.88098,1.4644 m 7.92878,-1.4644 0.88098,1.1715 m 7.63512,-1.1715 h 0.29365 m 9.69073,0 1.46829,1.4644 m 42.286822,-1.4644 h 0.587317 m 1.174633,0 c 5.88e-4,0.9926 -0.09691,1.6112 0.293659,2.9288 l 0.293658,-1.4644 m 28.484868,1.1715 0.293658,-2.6359 0.587317,2.3431 m -81.637052,-2.0502 2.34927,2.6359 c -1.12706,1.6765 -0.58761,2.2734 0.58732,3.5146 l -1.46829,1.4644 c -1.09594,-0.9978 -2.05649,-1.9863 -3.24845,0.01 -0.40731,0.6812 -0.50598,2.0296 -0.094,2.2912 0.96437,0.6121 1.1761,0.1077 2.7551,-0.8327 -1.26596,-1.2626 -1.40398,-1.4003 -2.05561,-2.0502 m 17.91317,-7.0291 1.46829,1.4644 m 17.913166,-1.4644 v 1.7573 m -50.802916,-1.4644 -1.17463,1.1715 m 29.6595,-1.1715 -0.88097,1.1715 m 20.849748,-1.1715 -0.587317,1.7573 m 3.81756,-1.7573 c 0.01909,0.8543 0.07899,1.2687 0,2.9288 m 1.174634,-2.9288 c -0.197633,0.8241 -0.181481,1.4152 -0.293659,2.9288 m 12.039996,-2.9288 0.587317,2.0501 m 25.254624,-2.0501 c 0.09926,2.0794 0.161219,5.3172 1.468292,7.0291 m 2.936585,-7.0291 -0.282206,2.6359 -0.0062,2.9288 0.335945,2.6286 -0.928548,1.4718 -0.587316,-4.979 m -31.715111,-4.3932 v 0.5857 m 9.103412,-0.5857 v 2.0501 l 1.174633,0.8787 0.587317,-1.1716 m 7.341461,-1.7572 -0.587317,0.5857 m 17.619506,-0.5857 1.468292,0.5857 m -98.669228,-0.2929 0.58731,0.5858 m 30.54048,-0.5858 0.88097,0.8787 m 3.81756,-0.8787 2.64293,3.5146 c -1.854747,1.6158 -2.069117,1.3689 -3.81756,2.6359 m 21.143407,-6.1505 0.293659,4.1004 m 41.405838,-4.1004 0.293659,1.1716 m -44.342423,-0.8787 -0.293658,0.2929 m 27.016575,-0.2929 c 0.701256,1.5294 2.94e-4,3.273 0,5.2719 m 9.39707,-5.2719 -0.587317,1.7573 m 1.174633,-1.7573 c 0.169441,0.5073 -0.267522,0.026 0.587317,0.8787 m -60.19998,-0.5858 0.88098,1.4644 m 4.992191,-1.4644 -1.468291,1.4644 -0.29366,-1.1715 m 23.492675,-0.2929 c 1.470348,0.4452 1.467998,1.6908 1.468292,3.5146 m 4.992193,-3.5146 v 1.7573 m 4.111218,-1.7573 c -0.543268,1.9995 0.83957,1.7028 1.254509,3.2273 0.337414,1.2394 -0.107185,2.2036 -0.07987,2.6303 m -70.184357,-5.5647 c 0.73121,0.8988 0.70918,2.4037 1.76195,1.1715 0.60934,1.0312 1.47416,2.6245 1.76195,4.6861 m -0.58732,-5.8576 v 0.8786 m 16.73853,-0.8786 1.46829,1.4644 m 36.413645,-1.4644 v 2.343 m 21.730723,-2.343 v 0.5857 m 10.571704,-0.5857 v 0.5857 m 8.809752,-0.5857 -0.293658,1.7573 0.587317,-0.5858 m -100.137523,5.5647 c -2.73513,-4.0599 -4.8759,-3.9225 -4.69853,-6.4433 l 0.88097,-0.2929 m -0.29366,0.2929 c 0.32332,0.3256 2.72192,1.0989 1.4683,3.5145 m 2.64292,-3.5145 c 0.44284,0.755 0.24873,1.1683 0.58732,3.2217 v -0.8787 m 5.57951,-2.343 0.58732,0.8786 m 20.84975,1.1715 c 0.42639,-0.1734 1.0322,-0.6408 2.0556,-1.3727 0.90447,-0.6464 1.84418,-0.4311 2.05561,-0.3846 m 24.667307,-0.2928 v 0.5857 m 19.381456,-0.5857 v 2.343 m 7.341461,-2.343 v 0.5857 m 17.913164,-0.5857 0.293659,2.0501 m -102.193127,-1.7573 -1.46829,1.4644 m 22.90535,1.1716 c -0.4631,-1.6867 -1.20546,-1.9858 -0.58731,-2.636 m 11.74633,0 c -0.26635,0.3076 -1.39047,0.7847 -0.58731,2.0502 m 62.549237,-2.0502 0.293659,0.5858 m -98.962886,7.322 -0.33477,-3.8074 -2.014496,-2.636 2.055606,-1.1715 m 10.86536,0 c 0.46633,1.3924 -0.33682,1.9518 0.29366,2.9288 m 66.660461,-2.9288 -1.174634,1.1715 m 7.928777,-1.1715 c 0,1.7122 -0.320381,2.3208 0.13802,4.0169 0.264293,0.9779 0.642525,1.6097 0.742956,2.7194 m 21.437065,-6.4434 c 2.167493,0.777 4.807776,2.3571 4.404876,4.979 m -106.891661,-4.979 0.88097,1.1715 m 0.88098,-1.1715 h 0.58732 m 28.48486,0 v 0.5858 m 3.5239,-0.5858 v 0.2929 m 2.93659,-0.2929 -0.33272,3.5146 -1.72289,3.2217 m 2.93658,-6.7363 1.174633,0.2929 m 29.659501,-0.2929 0.880976,1.1715 0.880975,-0.8786 m -31.421452,0 -0.293658,1.1715 0.880975,-0.8786 m 44.342422,-0.2929 0.293659,1.1715 m -103.955077,0 -1.17463,0.2929 0.29366,-1.1715 c 0.19293,0.108 1.50852,0.5099 2.55512,1.5519 0.82048,0.8163 1.20958,1.796 1.55609,2.2555 1.92141,-1.9163 1.12589,-2.4839 4.11122,-2.7402 1.25745,-0.108 2.4268,-0.7073 3.52332,-0.7626 0.8055,-0.041 1.54758,-0.012 2.05619,-0.012 m 10.865356,-0.2928 -0.58731,0.5857 m 2.05561,-0.5857 0.58731,0.5857 m 68.128754,-0.5857 1.174634,2.343 m 7.635119,-2.343 v 2.0501 m 3.81756,-2.0501 v 0.2928 m -108.947273,1.1716 -0.29365,0.8786 c -1.28359,-0.7788 -0.89948,-1.2043 -0.58732,-2.0502 1.35112,0.9774 1.37843,1.6765 3.81756,3.5146 -1.1438,1.3965 -0.60934,2.3937 -0.58732,4.3932 m 19.675116,-7.9078 -0.88098,0.8787 m 4.69854,-0.8787 v 0.5858 m 0.88097,-0.5858 0.88098,0.8787 m 61.374604,-0.8787 v 0.8787 m 2.936584,-0.8787 0.587317,1.7573 m 6.754144,-1.7573 h 0.293658 m 0.587317,0 -0.293659,3.2217 m 25.548284,-3.2217 v 0.5858 m 0.587317,-0.5858 0.880975,0.2929 m -82.518011,2.3431 1.17463,-2.3431 h 0.29366 0.29366 m 7.0478,0 c -0.33125,0.6508 -0.64253,1.0811 0,2.3431 l 1.46829,-1.4644 m 22.318038,-0.8787 v 0.2929 m 36.707304,-0.2929 0.587316,1.4644 m 8.222436,-1.4644 c 0.543269,1.7488 0.531522,1.9105 1.174634,2.636 m -119.225314,-2.0502 c 1.90672,-0.039 2.68286,-0.2569 3.5239,-0.2929 m 7.34146,0 c 0.0209,0.642 0.0987,1.2278 0.38528,2.0493 0.153,0.4384 0.44666,0.5661 -0.0916,1.7582 -1.26361,-0.7627 -1.65183,0.8883 -2.34927,1.7573 -0.8475,-1.7149 0.22348,-3.0378 -1.76606,-3.3298 -0.67659,-0.099 -0.95263,0.4021 -0.99345,0.4616 -0.38851,0.5664 -0.45546,0.9922 -0.47073,2.2824 m 29.072176,-3.2217 1.17464,-1.7573 m 6.46048,0 -0.29365,1.4644 m 10.86536,-1.4644 1.46829,0.8787 m 3.817555,-0.5858 1.73699,0.086 1.541706,1.2483 1.713497,1.3015 -1.762537,2.0508 -0.830467,0.878 -1.003137,1.1716 -1.983369,2.343 c 1.019582,1.2529 1.427768,1.7093 2.349268,2.9288 m 27.016575,-12.301 0.587317,1.1715 m -93.089714,-0.8786 h 0.58732 m 10.27804,0 c -1.00578,1.0037 -1.39869,1.1522 -3.23024,3.8074 l -0.58732,-1.1715 m 4.69854,-2.6359 0.88097,1.1715 m 10.571706,-1.1715 0.88097,1.7573 0.29366,-0.8787 m 7.0478,-0.8786 v 0.2929 m 16.73853,-0.2929 c 1.75755,0.7981 2.33664,1.4377 3.23025,2.0502 -0.99228,0.7351 -1.37139,0.4844 -3.52391,1.1715 l 5.57951,5.8576 -0.29365,0.2929 0.29365,0.2929 0.29366,-0.2929 m 8.222435,-9.3722 0.587316,0.5858 m -62.549237,0.2928 -0.58732,0.5858 0.29366,-1.1715 m 5.28585,0 -1.46829,0.8786 m 43.461446,-0.8786 v 0.8786 m 2.05561,-0.8786 c -0.65104,0.9015 -1.07039,1.8317 -2.05561,1.7573 m 10.86536,-1.7573 c -0.40936,0.8909 -0.74883,1.3929 -2.34927,3.2217 l 1.4683,0.2928 v 0.2929 l -0.29366,0.2929 -0.29366,0.2929 -0.29366,-0.2929 m 7.928774,-4.1003 c 0.05814,1.8325 0.532696,2.1535 0.880975,2.6359 -1.92082,0.7425 -2.245606,1.3534 -2.936584,2.0502 m 35.239011,-4.6861 -1.468292,1.1715 c 0.226117,0.6654 0.362081,0.8945 0.587317,2.6359 m 11.452678,-3.8074 v 0.5857 m 13.21463,-0.5857 c 0.05873,1.8296 -0.06314,2.0718 -0.293659,2.6359 m 5.57951,-2.6359 v 0.2929 m 0.587317,-0.2929 h 0.587317 m -131.85263,1.7573 1.76195,0.5857 -1.76195,1.7573 c -0.44891,-1.2793 -0.6291,-2.1202 0,-3.8074 l 1.17464,1.1715 2.34926,-1.1715 m 22.611696,0 0.58732,0.5857 m 2.93659,-0.5857 -0.29366,0.8786 m 30.54047,-0.8786 1.17464,1.4644 m 31.421445,-1.4644 0.587317,2.6359 m 3.523901,-2.6359 0.293658,0.5857 m 7.047802,-0.5857 v 0.2928 m 10.865362,-0.2928 0.293659,0.8786 m 4.111218,-0.8786 v 0.2928 m 12.92097,-0.2928 v 1.4644 m 1.174634,-1.4644 v 1.7572 m -84.279966,-1.4644 0.88098,0.8787 m -44.929736,-0.5858 v 2.0502 c 0.40025,-0.6321 0.52212,-0.9097 1.46829,-2.0502 m -1.17463,0 0.58731,0.5858 m 0,-0.5858 0.29366,0.2929 m 95.438982,-0.2929 -0.293658,1.4644 m 4.698534,-1.4644 v 0.5858 m 15.857555,-0.5858 v 0.5858 m -124.804823,0.2929 0.88097,-0.2929 c -0.97033,1.8721 -0.47998,2.2361 0,3.5146 0.31962,-0.782 0.33865,-1.2354 0.29366,-2.636 m 5.57951,-1.1715 c -1.051,0.8245 -1.13205,0.8186 -1.76195,1.1715 m 6.75415,-1.1715 0.58731,1.1715 0.88098,-0.8786 m 40.231196,-0.2929 -0.29365,3.5146 m 4.11121,-3.5146 -0.58731,1.1715 m 6.75414,-1.1715 c -1.28534,1.2034 -2.39713,1.1191 -3.81756,1.4644 0.14566,0.1892 0.88567,1.781 1.46829,1.4644 m 12.920969,-2.9288 -1.336733,1.7585 0.455758,2.049 m 58.144369,-3.8075 c -0.558538,1.1355 -0.4399,1.7713 0,4.1003 m 5.57951,-4.1003 v 0.5858 m 1.174634,-0.5858 h 0.293658 m -139.194091,0.8786 -0.29365,2.0502 c -1.04734,-1.0424 -1.36082,-2.288 1.17463,-2.6359 m 2.05561,0 v 1.4644 m 21.43706,-1.4644 v 0.8786 m 9.397066,-0.8786 c 0.25872,1.3595 0.77849,2.6503 0.88098,4.1003 m 3.5239,-4.1003 0.88098,0.8786 m 12.03999,-0.8786 0.58732,1.4644 m 5.28585,-1.4644 0.58732,0.5857 m 44.048756,-0.5857 0.587317,1.4644 m 6.166827,-1.4644 v 0.2929 m 14.97658,-0.2929 v 1.1715 m -115.701416,-0.8786 h 0.29366 m 3.23024,0 c -0.17384,0.591 -0.56999,1.1199 0,1.7572 m 2.05561,-1.7572 0.29366,0.2928 m 12.92097,0.5858 v -0.5858 l -1.17463,1.7573 1.468286,2.636 m 3.23024,-4.6861 1.17464,1.4644 m 4.69853,-1.4644 0.29366,1.1715 m 1.17463,-1.1715 1.17464,1.4644 m 27.01657,-1.4644 h 2.34927 m 1.46829,0 c 1.04513,0.6956 1.189022,0.7117 2.055608,0.8786 m 61.080953,-0.8786 c 0.1806,1.2251 0.783187,2.4467 0.880976,4.6861 m -113.058483,-4.3933 c 0.004,0.5176 -0.11042,0.7592 0.29365,2.9289 m 3.23025,-2.0502 c -0.3565,-0.6669 -0.36502,-0.6435 0.29366,-0.2929 m 115.114091,-0.5858 1.761951,3.2217 c -0.384105,-0.5743 -0.293659,-0.2715 -0.293659,-0.8786 m -128.328723,-2.0502 c 1.49296,0.186 0.82048,1.3894 2.34927,1.1715 v -0.8786 m 41.405826,0.2929 -0.88097,-0.2929 0.88097,-0.2929 m 3.81756,0 h 0.29366 m 17.032187,0 c 1.453022,1.2618 1.837421,1.1765 2.936584,1.4644 m 30.834135,-1.4644 c -0.05168,0.8057 -0.07342,1.139 -0.587317,2.3431 l 0.587317,-0.2929 m 11.452679,-2.0502 0.293658,2.0502 m 16.444872,-2.0502 -0.587317,0.8787 m -129.503354,-0.5858 1.46829,0.5858 m 16.738526,-0.5858 c 0.42668,0.7179 0.52183,0.7767 0.58731,1.7573 l -0.29365,-1.4644 m 22.31804,-0.2929 c 0.2963,2.1972 0.49892,1.7438 1.38606,3.2217 0.38587,0.6432 0.77673,1.2729 1.27331,1.6589 0.83399,0.6484 1.5097,0.3403 2.03916,0.098 -1.02663,-0.5082 -1.19607,-0.3524 -1.76195,0 m 15.27024,-4.979 c 0.24403,0.5412 0.60846,0.8092 0,2.3431 l -0.58732,-1.4645 m 41.112179,-0.8786 v 0.2929 m 1.76195,-0.2929 v 1.1715 m 24.960967,-1.1715 v 0.2929 m 0.880975,-0.2929 v 0.8786 m -127.447747,-0.5857 c 0.096,2.8945 0.93677,2.5937 1.76195,5.2718 m 2.34927,-5.2718 -0.88098,0.8786 -0.58732,-0.8786 m 11.15902,0 0.58732,-0.2929 m 2.93658,0.2929 h 0.587316 m 25.54828,0 c 0.23082,1.4017 0.80815,1.2635 1.4683,0.5857 m -0.29366,-0.5857 v 1.1715 m 4.69853,-1.1715 c 0.1947,0.8514 0.21995,0.977 0.88098,2.0502 m 3.5239,-2.0502 0.29366,0.5857 m 2.05561,-0.5857 v 0.2929 m -59.906316,0 -0.29366,2.343 m 17.91316,-0.2929 2.64293,-1.4644 m 26.722916,0.5858 -0.58732,-1.1715 m 11.74634,0 h 0.58731 m -67.247776,0.2928 -0.29366,1.4645 -0.29365,-1.1716 0.58731,-0.2929 m 1.76195,0 c 0.76695,1.2225 1.04249,2.351 0.58732,3.8075 h -0.58732 m 12.33366,-3.8075 -1.17464,1.1716 m 3.52391,-1.1716 0.88097,5.5648 m 3.5239,-5.5648 v 0.2929 m 16.738526,-0.2929 v 0.8787 m 16.15122,-0.8787 h 0.58731 m 5.57951,0 c -0.97201,1.3915 -0.47807,1.4126 -0.48365,3.2103 -0.003,1.0312 -0.81667,1.634 -0.98464,2.6474 m 6.46049,-5.8577 h 1.17463 m 15.563892,0 c -1.053059,1.0377 -1.955765,2.1811 -3.523901,1.4645 m 33.183402,-1.4645 -0.293658,0.2929 m 17.619506,-0.2929 0.293658,0.8787 m 9.103411,-0.8787 v 0.8787 m -140.075066,6.7363 c 0.13929,-1.5093 -0.54511,-2.5774 -0.24878,-4.3933 0.20203,-1.238 0.41156,-2.0908 1.12976,-2.6359 m 20.55609,-0.2929 0.88097,0.5858 m 5.87317,-0.5858 v 0.5858 m 3.23025,-0.2929 0.58731,-0.2929 m 52.564853,0 c 0.21672,1.9571 -0.688629,2.4465 -1.174633,3.5146 1.146149,0.3438 1.500594,1.014 1.757545,2.0505 0.166798,0.673 0.253134,2.0601 0.862769,2.6716 0.754115,0.7565 1.33732,0.05 1.570191,-0.1403 0.78818,-0.6455 1.188436,-1.2971 1.682663,-1.9459 0.598182,1.3019 -0.474552,1.506 -0.768504,3.5146 -0.08399,0.5726 0.0464,1.4776 -0.03054,1.7573 -0.302469,1.0971 -0.786418,1.5282 -1.514984,2.6359 -0.799338,1.2158 -2.795335,2.2514 -4.440116,3.2217 m -76.351184,-16.9871 c 0.81825,2.0437 0.95245,2.6837 2.34927,2.9288 v 0.2929 m 0.29366,-3.2217 c -0.17523,0.6748 -0.25939,0.9519 -0.58732,2.6359 m 1.17463,-2.6359 v 1.1715 m 10.86537,-1.1715 c 0.0109,1.2866 0.42551,2.5437 0.58731,4.3932 m 47.866326,-4.3932 1.17463,0.2929 m 72.239969,-0.2929 v 0.5858 m 2.349268,-0.5858 v 0.2929 m -140.662383,0 -1.46829,4.3932 m 2.93659,-4.3932 -0.29366,0.2929 m 11.15902,-0.2929 h 0.29366 m 1.46829,0 h 0.29366 m 15.563886,0 0.58732,0.5858 m 22.90536,-0.5858 -0.29366,0.8786 m 4.69853,-0.8786 c 0.29425,0.9483 0.33213,1.1238 0,1.7573 m 72.82729,-1.7573 0.880975,2.343 m 7.63512,-2.343 v 0.8786 m -131.558971,-0.5857 c -0.0425,0.9881 -0.25466,1.6296 -0.29366,3.5145 m 18.50049,-3.5145 c 0.19528,0.4765 0.6108,0.9114 -0.58732,0.8786 m 29.365836,-0.8786 v 0.5857 m 7.63512,-0.2928 h -0.58732 c 1.24394,0.1751 1.50853,0.371 2.05561,-0.2929 m 80.462408,0 0.293658,0.2929 m -149.178472,0 0.88097,1.4644 m 1.76195,-1.4644 0.88098,1.7572 m 11.45268,-1.7572 c -0.50979,1.0116 -0.0767,2.3781 -1.46829,4.9789 m 39.056566,-4.9789 c -1.13382,1.0192 -2.27116,2.1271 -2.98122,3.5189 -0.93178,1.8264 -0.64282,2.9104 -0.54268,3.5102 l 1.4263,-1.4717 0.57586,-1.1569 -0.82753,-1.4717 m 6.46049,-2.9288 c 0.0255,1.0974 0.0576,1.539 0.58731,2.6359 l 0.88098,-0.8787 m 7.63512,-1.7572 0.88097,0.2928 m 3.81756,-0.2928 4.40488,3.5145 -1.17464,-0.2929 m 6.166827,-3.2216 -2.349267,2.0501 m 56.676076,-2.0501 v 2.6359 m 13.801947,-2.6359 v 1.1715 m -143.305309,-0.8787 0.29366,1.1716 m 21.14341,-1.1716 v 0.2929 m 27.603886,-0.2929 c 0.17091,0.1781 0.85983,0.5975 1.37139,1.7573 0.38997,0.8839 1.30971,2.6679 2.15251,0.5858 m 7.0478,-2.3431 1.17464,2.636 1.17463,-0.8787 0.0858,1.7386 1.58752,2.0126 -1.08595,2.6922 m 5.87317,-8.2007 0.29366,0.2929 m 0.58731,-0.2929 0.58732,0.2929 m 1.17463,-0.2929 0.29366,1.1716 m 40.818519,-1.1716 v 0.2929 m -117.463365,0 v 2.9288 c -0.71661,-0.6771 -0.88476,-1.0239 -1.76195,-1.7573 -0.65257,0.8122 -1.07103,1.5412 -1.76195,0.8787 m 18.79414,-2.0502 c 0.44372,0.6177 0.92708,0.8172 0.58732,3.5146 m 45.223396,-2.0502 0.58731,-1.4644 m 5.28585,0 -0.58731,0.5858 m 2.64292,-0.5858 0.88098,0.8787 m 13.508282,-0.8787 1.468292,1.4644 m 50.802908,-1.4644 v 0.8787 m -136.257498,-0.5858 -0.58732,1.1715 m 137.432135,-1.1715 v 0.8786 m -133.320915,-0.5857 0.58731,1.4644 m 56.382416,-0.8787 0.88098,-0.5857 m 8.51609,0 0.29366,0.2929 m 5.28585,-0.2929 2.055606,0.8786 m 0.293659,-0.5857 1.468292,-0.2929 m -67.541433,0.2929 -0.29366,0.8786 m 48.159986,-0.2929 c 0.94411,-0.9416 -0.43462,-0.7301 0.88097,-0.2929 m 4.11122,-0.2928 0.29366,1.1715 m 6.16682,-1.1715 0.88098,0.2928 m -69.597046,0 -0.29366,0.5858 m 3.81756,-0.5858 v 1.1716 m 1.4683,-1.1716 v 0.5858 m 56.088756,-0.5858 -0.88098,0.8787 m 6.11779,-0.5858 -0.0978,0.2929 0.0978,-0.2929 m 12.970004,-0.2929 c -0.101899,0.6382 0.796402,1.7726 -0.880975,4.1004 m -75.763865,-3.8075 h 0.58732 m 46.691686,0 c 1.20869,1.2055 1.66151,1.4167 2.93658,3.2217 -2.18306,1.453 -2.47936,1.523 -3.13686,2.3548 -0.15241,0.1927 -0.69362,0.6751 -0.61991,1.7455 0.11511,1.6788 1.19577,2.1141 1.40868,2.3431 0.32684,0.3517 1.35347,0.4917 1.63215,2.343 0.11805,0.7855 -0.50715,1.6718 -0.75235,2.636 m 11.74633,-14.6441 0.58732,0.8787 m 3.23024,-0.8787 c 2.02918,0.4718 2.45763,1.3145 2.93659,2.6359 l -1.46829,0.2929 c 0.18676,0.8432 0.13978,1.014 -0.58732,1.4644 0.15799,1.9954 0.0995,3.205 0.75059,5.5648 0.22171,0.8048 0.46873258,1.5876 0.68926258,2.3579 0.15564,0.5439 0.27041742,0.8602 0.44396742,1.4495 0.20996,0.7129 0.14947,0.9958 0.30981,1.7105 0.0831,0.3704 0.49481,1.011 0.4493,0.9255 0.77936,-1.2946 0.95644,-1.8112 1.46829,-2.636 l -1.76195,0.2929 m 0.29366,-14.0583 1.17463,0.5858 m 76.938503,-0.5858 c 0.01821,0.6561 -0.07371,0.7269 -0.587317,0.2929 m -143.892622,0 v 0.8786 m 78.99411,-0.8786 c -0.615508,0.647 -2.045625,1.1405 -2.40242,3.5146 -0.08046,0.5362 0.27369,1.4043 0.22553,2.0501 -0.114527,1.5394 -0.741194,2.8794 -1.053353,4.3933 m -72.827287,-9.6651 -0.29365,1.1715 m 10.5717,-1.1715 v 0.8786 m 35.532666,1.1715 c -0.0449,-0.4592 -0.6763,-1.2034 0.58732,-2.0501 m 23.786325,0 -0.880975,0.8786 m -82.811666,0.2929 0.58731,-0.8786 m 7.34146,0 -0.58731,1.7572 m 58.731676,-1.7572 0.58732,0.5857 m 3.23024,-0.5857 c 0.91123,1.7019 2.30463,1.9265 1.76195,4.1003 l -1.17463,-2.9288 m 3.81756,-1.1715 1.17463,1.1715 m 9.984386,-1.1715 c -0.531522,0.3254 -0.747948,0.7289 -2.055609,0.2928 m -81.049723,0 1.17464,2.9289 m 2.64292,-2.9289 -0.29365,0.8787 m 58.438016,-0.8787 -0.3427,0.5858 c -1.18755,1.8223 0.64635,2.0147 -0.29365,3.5146 -0.55003,0.878 -0.84251,1.3472 -0.39145,1.9037 0.72475,0.8942 1.26009,0.5811 1.0278,0.1464 m 8.5161,-6.1505 -0.58732,0.5858 m 4.11122,-0.5858 4.69853,2.9289 c 0.40907,-1.2881 0.054,-1.7591 -0.58731,-2.636 m 2.055601,-0.2929 0.293659,0.2929 m 1.76195,-0.2929 0.293659,0.2929 m -83.692645,0 c -0.88306,1.32 -1.2319,1.8847 -2.05561,3.2217 m 61.668266,-3.2217 c -0.84427,1.9076 0.0349,1.8753 1.46829,3.5146 l 1.17464,-1.7573 m 9.10341,-1.7573 0.58732,0.5858 m 11.45267,0 c 1.362869,-0.1438 1.551398,0.075 2.055609,0.5857 l 0.293659,0.2929 0.293658,0.2929 m 68.422414,-1.7573 0.293658,0.8787 m -156.519934,-0.5858 -0.29366,0.8786 m 5.57951,0.5858 0.88098,-1.4644 m 58.731676,0 1.17464,0.5858 m 12.92097,-0.5858 0.29366,0.2929 m -80.168756,0 h 0.58732 m 63.430216,0 0.88098,0.5857 m 6.46048,-0.5857 0.88098,0.5857 m 3.23024,-0.5857 -1.46829,2.0502 m 9.690723,-2.0502 v 0.2929 m -72.533619,0 -0.29366,0.2928 m 47.278996,-0.2928 1.4683,1.4644 m 16.44487,-1.4644 0.29366,0.2928 m 81.637035,-0.2928 0.293659,0.2928 m -148.00384,0 v 0.5858 m 57.263386,-0.5858 v 0.2929 m 18.206822,0.5858 1.174634,-0.2929 m -90.153132,1.7573 2.93659,-2.0502 -0.29366,2.3431 m 3.5239,-2.3431 -0.29366,1.4644 m 4.40488,-1.4644 v 0.8787 m 72.239966,0.8786 c -0.16004,-0.8886 -0.14536,-0.8971 0.29366,-1.7573 l 0.58732,1.7573 m 4.698527,-1.7573 c -0.02526,1.4952 -0.350628,2.0763 0.293658,3.8075 0.976121,-1.1669 1.058051,-1.8194 0.293659,-2.9288 m -87.21655,-0.5858 v 0.2929 m 74.295586,-0.2929 v 0.2929 m 4.69853,0 0.88098,0.8786 m 0,-1.1715 0.88097,0.5858 m 10.571702,-0.5858 -0.587317,1.4644 m -79.875081,-1.1715 v 0.5858 m 74.001912,-0.5858 1.468292,0.8786 m -24.079988,-0.5857 c 0.29513,0.3365 0.84045,2.3032 2.34927,2.0501 m 7.34146,-2.0501 -1.17463,1.1715 m -64.604856,-0.8786 0.29366,1.1715 m 61.374606,-1.1715 c 0.19675,0.3119 0.68217,0.6048 0.59818,1.4644 -0.0672,0.6894 -0.75117,1.4032 -0.89184,0.5857 m 1.76195,-1.4644 0.88098,-0.5857 m 14.0956,0 -1.46829,0.5857 m 6.460483,-0.5857 0.293658,1.1715 0.293658,-0.5858 m -5.873169,-0.2929 2.05561,1.1716 m -0.587317,-1.1716 -0.587317,0.5858 m -78.994112,-0.2929 -0.29366,0.8787 m 64.604856,-0.8787 -0.58732,0.8787 m 2.34927,-0.8787 -0.29366,1.4644 m 4.99219,-1.4644 v 4.1003 m 2.05561,-4.1003 c 0.0467,1.0851 0.26048,1.9046 0.29366,3.5146 m 1.76195,-3.5146 c -0.48512,1.3754 -0.29689,2.7575 1.19284,3.4584 1.30385,0.6135 2.38363,0.7301 3.799351,0.3491 -1.313531,-0.9742 -2.624131,-1.7403 -2.936581,-0.2929 m 8.80975,-3.5146 2.936584,0.8787 c 0.221712,0.7398 0.212903,1.3223 0.530641,2.343 0.280444,0.9009 0.446655,2.8679 -1.411616,4.979 m 7.047802,-8.2007 0.293659,1.7573 c -0.568229,-0.5427 -0.540919,-0.6189 -1.761951,-1.4644 m -97.494595,0 0.29366,0.2929 m 63.723876,-0.2929 -1.17463,0.8786 m -6.16683,10.5438 c -0.81431,0.4264 -1.74962,1.5631 -2.72544,2.0249 -2.28966,1.0837 -1.89821,-3.9386 -1.76313,-4.6609 0.14301,-0.7662 0.61434,-1.2336 0.62784,-2.343 0.0235,-1.9594 -0.60581,-3.6332 -0.37793,-4.3625 0.41347,-1.3218 1.91905,-1.573 3.35769,-1.788 m 0,0 1.17463,1.1715 m 4.11122,-1.1715 0.41964,2.174 0.16767,1.9263 m 2.64293,-4.1003 v 0.2929 m 6.16683,-0.2929 v 1.1715 m 17.325841,-1.1715 c -0.243443,1.5461 -0.401431,1.7614 -0.587317,2.9288 m 7.635119,-2.6359 0.587317,0.5857 m -32.59608,-0.2929 -0.58732,1.7573 m 7.34146,-1.7573 c -1.06363,1.5804 -0.88831,2.6866 -2.37658,3.5146 -0.97905,0.5445 -2.03064,0.5234 -1.44098,2.0502 l -0.58731,-1.4644 m 15.85755,-4.1004 -0.29366,1.1716 m -27.89755,1.4644 c 1.27742,-0.121 1.41955,-0.3875 1.76283,-0.654 0.61786,-0.4795 1.07009,-0.9976 2.05473,-1.6891 m 6.46049,0 h 1.17463 m 3.23024,0 -0.88097,0.2929 m 15.85755,-0.2929 v 0.2929 m 1.468291,-0.2929 1.468293,2.0502 m 0.587316,-2.0502 c 0.733853,0.7319 0.381169,0.3802 0.880976,0.8787 m 4.992193,-0.8787 -2.055609,2.3431 1.174634,-1.7573 m -24.079984,0 c 0.33007,0.7014 0.17296,0.5904 0.88097,0.8786 m 3.23024,-0.8786 c -0.88655,1.5151 -1.80864,3.0521 -1.46829,4.6861 l 0.58732,-1.1715 m 9.10341,-3.5146 1.17463,0.2929 m 18.79414,-0.2929 2.642926,1.1715 c -1.866787,1.8618 -2.87521,2.0648 -3.161527,3.8075 -0.126861,0.772 0.525355,1.9406 0.97524,2.6359 0.252839,0.3907 1.172871,1.4486 1.081544,2.6359 -0.235515,3.0662 -2.100246,1.8165 -3.7509,3.3251 -0.636064,0.5811 -1.613065,2.1787 -2.19216,3.1183 m -44.342423,-12.301 -0.58584,-1.7585 0.3195,-1.6055 1.73464,-0.7363 m 44.342415,0 1.471229,0.093 1.588692,1.0942 1.638614,1.7415 c -0.73209,-0.049 -0.69597,-0.067 -0.293658,-0.2929 m -0.880975,-2.6359 -0.587317,0.5857 m -39.05657,2.3431 -1.76195,-1.7573 2.34927,-0.8787 m 1.76195,0 c 1.52849,1.5245 1.97955,1.9744 2.64293,2.636 m -0.58732,-2.636 -0.88098,0.8787 m 6.16683,-0.8787 -0.88097,1.1716 m 18.500473,-1.1716 h 0.587316 m 6.166827,1.4644 1.761951,-1.4644 m -29.953157,0.2929 0.29366,1.4644 1.17463,-1.1715 m -0.29365,-0.2929 -0.58732,0.5858 m 11.15902,-0.2929 c 0.79904,3.2346 0.85308,3.3711 1.76195,4.6861 0.54532,-0.292 2.58214,-0.422 2.58214,-1.4908 0,-0.7799 -0.88245,-1.0619 -1.36669,-1.0086 -0.98375,0.1083 -1.19284,1.1196 -1.50911,1.6208 m -22.31804,-3.5146 c -0.19528,0.7594 0.0138,1.8311 2.64293,4.979 m -2.05561,-4.979 h 0.88097 m 33.183401,0 v 1.1715 c 1.055702,-0.3362 0.978469,-0.5585 1.174633,-1.1715 m 6.460486,0 c -0.95762,1.0561 -1.245112,1.5587 -1.174634,2.9288 m 3.81756,-2.9288 0.127447,4.9784 -1.59574,2.0507 m -49.921933,-6.7362 c 0.91387,1.5733 0.9817,3.2504 1.76196,4.6861 m 28.1912,-4.6861 -0.58731,1.1715 m 4.111211,-1.1715 0.587317,0.8786 m -30.834128,-0.5858 v 0.5858 m 9.98438,-0.5858 c -0.52447,0.7191 -0.84191,1.2471 -1.17463,2.9289 m 6.46049,-2.9289 c -0.95821,1.3227 -1.1485,1.2234 -1.76195,1.1716 l 0.29365,3.2217 1.4683,-1.7573 m 12.62731,-2.636 v 1.1716 m 14.682915,-1.1716 c 0.969367,2.2043 -0.848379,2.5525 -3.230242,5.2719 1.462125,0.369 2.484644,-1.0435 3.228774,-1.6226 0.838689,-0.6525 1.280645,-0.9234 1.763419,-1.3062 m 4.404876,-2.3431 1.468293,1.1716 m -47.572665,-0.8787 c -0.31862,0.4493 -1.61717,3.8075 1.4683,2.636 m 9.98438,-2.636 0.58732,0.5858 m 3.5239,-0.5858 v 0.2929 m -7.92878,0 c 0.0335,0.6534 -0.001,1.0102 -0.29366,3.2217 m 10.57171,-3.2217 0.58731,1.7573 m 15.270238,-1.7573 v 0.5858 m 2.349268,-0.5858 h 1.174634 m -44.04876,0.2929 c -1.51087,2.5319 -1.24511,3.1971 -1.17463,5.2719 m 42.874122,-5.2719 c -0.279269,0.9946 -0.71036,1.5528 -1.76195,2.6359 m 7.635119,-2.6359 h 0.587317 m -13.21463,1.1715 0.880976,-0.2929 m 4.111218,-0.5857 0.880975,1.4644 m 2.642926,-1.4644 v 0.5857 m 1.174633,-0.5857 h 0.587317 m -12.039993,0.5857 1.761948,-0.2928 m -16.738528,0.2928 -0.58731,1.4644 m 3.5239,-1.4644 v 0.2929 m 0.88097,-0.2929 c -0.27339,0.8043 -0.50744,2.0165 -0.72915,2.636 -0.23052,0.6443 -0.43344,0.9656 -1.05482,1.7573 -0.65427,0.8338 -0.92973,1.2465 -1.17904,2.0501 -0.7318,2.3568 0.16915,2.9912 0.61374,3.2217 l -0.88097,-1.4644 m 30.540471,-5.5647 c 0.754702,-0.7524 1.278002,-1.4709 2.936585,-2.636 m -12.627313,0.2929 -0.293658,0.8787 m -17.032185,-0.5858 c -0.0226,1.0866 -0.15652,2.2274 -0.35533,2.9288 -0.13978,0.4932 -0.42962,1.1519 -1.0278,2.0502 -1.02046,1.5323 -1.10651,0.8985 -1.2598,2.9288 m 6.16683,-7.9078 2.05561,6.4434 0.88098,-0.8787 0.29365,0.2929 -0.29365,2.6359 c 1.52907,0.3799 1.79601,0.8605 2.34926,1.4645 l -1.76195,0.8786 1.17464,1.4644 -0.88098,0.5858 -0.29366,-1.4644 m 4.698533,-11.4224 c 0.522418,0.8453 1.923463,0.9832 2.078808,2.0323 0.186767,1.2626 -2.298465,0.9583 -2.958311,0.9264 -1.09241,-0.053 -1.33967,-0.1954 -1.76342,-0.3228 1.32499,-0.4929 2.165434,-0.9032 1.17463,-2.0501 v 0 m 3.523902,-0.5858 h 0.293658 m 8.809753,0 1.174634,1.1715 m 8.516094,-1.1715 v 0.2929 m -48.747291,0 c -1.42014,2.664 1.33732,3.7705 1.76195,1.1715 m 7.63512,-1.1715 -0.29366,2.0501 m 4.69853,-2.0501 -0.29366,1.1715 -0.58731,-0.5858 m 1.76195,-0.5857 c -0.20644,1.2889 -0.49952,1.6864 -1.47857,2.3861 -0.6114,0.4364 -1.01635,0.8083 -1.33938,1.4257 -0.85366,1.6334 -1.10885,2.9898 -3.05522,3.5102 m 7.92878,-7.322 v 0.8786 m -24.37365,1.1715 h -1.17464 c 0.099,-1.2711 0.45106,-1.5882 1.4683,-1.7572 m 17.32584,0 0.88098,0.5857 m 7.34146,-0.5857 v 0.2928 m 11.452674,-0.2928 1.468292,0.8786 m 0.293658,-0.8786 0.587317,0.2928 m 2.349267,0 0.587317,2.636 m 1.174634,-2.636 v 0.2929 m 2.936584,-0.2929 0.880976,0.8787 m 9.103411,-0.8787 0.587317,1.1716 m -39.056567,-0.5858 0.58732,0.5858 m 2.34926,-0.5858 v 0.8786 m 4.9922,-0.8786 0.29366,0.8786 m 4.99219,-0.8786 v 0.8786 m 3.817555,-0.8786 h 0.880975 m -1.174634,0.5858 2.055609,-0.5858 m 4.992193,0 v 0.2929 m 8.516095,0 c -1.41514,1.3001 -2.343394,2.3559 -5.873169,5.8576 m -42.580464,-5.5647 0.29365,1.4644 -0.29365,-1.4644 m 22.31804,0 v 0.5857 m 0.58731,-0.5857 c 0.002,3.2846 -0.65251,4.332 0.88098,6.4433 0.71065,-0.9278 0.78847,-1.0388 0.29366,-4.3932 m 10.278038,-2.0501 0.587317,0.5857 m 4.111218,-0.5857 -0.293658,0.5857 m 3.523901,-0.5857 c -0.100138,1.4913 -0.724749,3.265 -2.055609,4.3932 m -27.016567,-4.1004 v 0.2929 m 2.64292,-0.2929 0.58732,0.8787 0.88097,-0.8787 m 27.89755,0 1.174634,1.1716 m 7.635119,-1.1716 v 0.5858 m -58.438023,-0.2929 h 1.46829 m 12.62731,0 0.29366,0.5858 m 9.39707,-0.5858 v 0.8787 m 10.27805,-0.8787 h 1.17463 m 11.746334,0.2929 -1.174633,0.5858 m -36.707301,-0.5858 1.17463,2.3431 m 1.4683,-2.3431 0.58731,0.5858 m 7.63512,-0.5858 c -0.41934,2.0267 -0.4863,2.7674 -0.58731,4.3932 m 2.34926,-4.3932 v 0.2929 m 12.04,-0.2929 c 0.40466,0.3412 0.62667,1.0222 2.34927,1.1481 0.52418,0.038 1.690584,0.022 2.34926,0.023 m -26.42925,-0.8786 -0.29366,2.343 m 7.0478,-2.343 0.88097,0.8786 m 1.17464,-0.8786 v 0.5858 m 16.738525,-0.5858 v 0.5858 m 12.627312,-0.5858 c -1.327923,1.3244 -2.482001,2.3571 -4.698535,4.3932 m 14.389263,-4.3932 0.293659,0.2929 m -59.025344,0 0.58732,4.1003 m 2.93658,-4.1003 c -0.25695,1.1797 -0.97494,2.8143 -0.90975,3.2217 0.14066,0.8783 0.67248,1.1946 1.78633,2.3424 0.61022,0.6291 1.24511,1.3684 1.76635,2.0508 1.10856,-1.4123 1.27536,-1.6867 1.46829,-3.2217 m 2.34927,-4.3932 0.29366,0.2929 m 36.707298,-0.2929 -2.642926,2.9288 m -36.707302,-2.6359 1.17464,1.7572 m 9.39707,-0.5857 c -0.19323,-0.5328 -0.36091,-0.4153 0,-1.1715 m 4.69853,0 0.88098,0.8786 m 29.365835,-0.8786 c -0.997264,0.9524 -1.531722,2.0302 -3.523901,4.1003 l 0.587317,-1.7573 m 7.928777,-2.343 v 0.5857 m -32.596078,-0.2929 c -0.29777,0.6537 -0.86659,1.1048 -1.2689,2.3431 -0.25137,0.7738 -0.17649,1.9058 -0.32861,2.6359 -0.20644,0.9926 -0.64046,1.4006 0.71653,2.6359 -0.60728,0.6555 -1.26479,1.2544 -1.28446,2.0508 -0.0135,0.5409 0.55589,0.9434 0.69714,2.6353 l 1.17464,0.2929 c 0.23081,-0.9205 0.14272,-1.5496 -0.88098,-1.4644 m 19.381455,-11.1295 h 0.293659 m 5.57951,0 -0.587317,1.1716 m -50.509247,-0.5858 h 1.46829 l 1.17464,2.0502 m 6.16682,-1.7573 v 1.4644 m 12.04,-1.4644 -0.58732,0.2929 m 16.73853,-0.2929 0.29366,0.2929 m 7.0478,-0.2929 v 1.1715 m -19.38145,-0.8786 0.58731,0.5857 m 1.4683,-0.5857 h 0.29366 m -26.72292,0.2928 0.58732,1.4644 m 19.08779,-0.5857 1.17464,-0.8787 m 13.50828,1.4644 c -0.69949,-0.6736 -0.73326,-0.9864 0,-1.4644 v 0 m -35.53267,0.2929 c -0.0185,1.1988 0.0628,3.7846 -1.17463,4.979 l 1.17463,3.2217 m 5.57951,-8.2007 c 0.0999,1.3133 0.32479,2.114 1.76196,1.4644 m 27.31023,-1.4644 0.29366,0.2929 m 15.56389,-0.2929 -1.76195,2.0502 m -37.88193,-1.7573 0.88097,3.5146 m 23.19902,-3.5146 h 1.46829 m -13.80195,0.2929 c 0.26841,0.458 0.12598,0.3169 0.58732,0.5857 m 32.302423,9.6651 c 2.973879,-4.3604 3.141852,-4.5104 2.483763,-5.8576 -0.154758,-0.3172 -0.522712,-0.6192 -0.858951,-1.7573 -0.242561,-0.8212 0.152703,-1.3177 0.247848,-1.4471 0.460163,-0.6259 1.031622,-0.9844 1.628336,-0.9686 0.79787,0.021 0.777608,0.7624 0.261356,1.5403 l -0.24403,0.2835 -0.488941,0.545 c -0.235514,0.2707 -0.449004,0.5981 -0.680113,0.9256 l 2.557177,-1.156 0.08575,-0.8942 m -49.628268,-1.1715 -1.17464,1.1715 m 2.34927,-1.1715 v 0.5857 m 32.889741,-0.5857 v 0.2928 m -43.167781,0 c 0.27339,1.7087 1.28827,4.2254 2.0556,5.8577 1.49473,-1.1276 1.77634,-1.4308 1.76195,-2.3431 l -0.88097,1.1715 m 17.91316,-4.6861 -1.46829,1.4644 1.17464,-0.5857 m 23.492666,-0.8787 -0.293658,0.5858 m 10.865362,-0.5858 0.587317,0.8787 m -52.858517,-0.5858 0.29366,0.2929 m 22.02438,-0.2929 h 1.4683 m 8.51609,0 v 1.1715 m 1.17463,-0.8786 v 0.2929 m 14.095605,0.2929 -2.349268,2.6359 c 0.119226,-1.4228 0.901238,-2.3331 2.055609,-3.2217 m -51.390226,0.2929 v 0.5857 m 11.15902,-0.5857 -1.17463,1.1715 m 24.66731,-0.5858 1.17463,-0.5857 m 11.15902,0 v 0.8786 m -34.06437,-0.5857 v 0.2928 m 47.572658,-0.2928 0.293658,0.2928 m 0.880975,-0.2928 c -0.291309,0.6168 -0.253427,1.2037 -2.055609,2.0501 m -53.445832,-1.7573 v 0.5858 m 23.19902,-0.5858 c -0.92708,1.9855 -1.52849,2.7016 -2.64293,3.2217 m 2.64293,-3.2217 1.46829,1.1716 m 1.76195,-1.1716 0.58732,0.2929 m 12.333648,-0.2929 v 0.5858 m -13.801948,-0.2929 v 0.8787 m 21.437067,-0.8787 c -0.630485,1.8645 -3.78467,5.1096 -3.81756,9.0793 m -47.866317,-8.7864 v 0.5858 m 2.05561,1.1715 c 1.34436,-1.0186 1.48914,-1.4782 2.34926,-1.4644 m 4.40488,-0.2929 c 0.76615,0.9782 1.66798,2.5665 3.23024,4.6861 m -2.05561,-4.6861 -0.58731,0.5858 m 12.62731,-0.5858 c -0.0899,1.332 0.27516,1.3827 0.61903,1.7257 0.5189,0.5175 1.01342,0.6654 1.73024,0.6174 m -1.4683,-2.3431 1.17464,1.1715 m 7.92878,-1.1715 0.58731,1.7573 m 0.58732,-1.7573 v 1.1715 m 22.024378,-1.1715 c -1.086242,1.0834 -3.795535,2.3167 -4.404876,6.7363 m -46.691692,-6.1505 v 0.8786 m 4.69854,-0.8786 c 0.22024,0.5898 0.14389,0.6001 0.88097,1.7573 m 1.17464,-1.7573 1.17463,0.8786 m 9.39707,-0.5857 -0.88097,0.8786 0.58731,-0.5858 m 23.199016,-0.5857 v 0.2929 m 1.174634,-0.2929 -0.293658,0.2929 m -44.929732,2.343 -0.29366,-2.0502 c 0.76116,1.3321 0.99315,2.6447 2.05561,2.9288 m 34.06437,-2.9288 0.880976,0.5858 m -1.761946,-0.2929 0.83634,4.098 -1.09329,1.5502 -0.91534,1.1054 -0.296,2.6186 v -1.4644 m 10.865355,-7.9078 0.293658,1.1715 m 11.15902,-1.1715 c -0.585848,0.6107 -0.997557,1.0456 -2.570392,2.9288 -0.722987,0.8655 -2.023306,2.6808 -3.009118,3.5146 m 8.809753,-6.4434 2.936584,1.1715 -1.468292,2.0502 c 2.117278,0.8494 2.772429,0.6657 4.111218,0.2929 0.518014,1.7198 0.348279,2.8137 -1.468292,4.6861 -0.318619,-1.3001 0.452234,-1.4791 0.05521,-2.7868 -0.278682,-0.9185 -0.974065,-0.7559 -1.5235,-1.6064 m -63.430224,-3.5146 -0.58731,1.4644 m 9.10341,-1.4644 0.88097,1.4644 m 3.23025,-1.4644 c 0.49716,0.4958 0.0241,0.024 0.88097,0.8786 l 1.17464,-0.5857 m 7.34146,-0.2929 -1.4683,1.7573 m 40.818525,-1.7573 -1.058051,3.5146 -0.291603,2.0487 -0.118638,1.7587 m -51.683883,-7.0291 c -1.34554,1.648 -0.36061,2.0706 1.76195,4.1003 m 20.84975,-4.1003 c -1.23219,1.2561 -1.91788,0.9492 -2.64293,1.1715 1.20107,1.7464 0.85014,3.3195 -0.29365,3.5146 m 21.143401,-4.6861 -0.880975,3.5145 m -38.175596,-3.2216 -0.29366,0.2928 m 47.572667,-0.2928 c -0.06666,0.6004 0.139194,0.996 -1.174634,2.6359 l -0.293658,-1.1715 m -47.866325,-1.1716 0.88098,1.7573 m 18.79414,-1.7573 0.58731,0.5858 m 33.183405,-0.5858 0.880975,1.1716 m -63.13656,-0.8787 c -0.79787,1.4914 -0.6901,1.709 -0.54063,3.5146 0.084,1.0157 0.18795,1.8727 0.24697,2.9288 m 8.22244,-5.8576 c -1.96076,-0.6687 -0.32919,3.2047 0.19293,4.3932 0.82577,1.8806 2.22681,4.098 2.74365,6.1505 m 3.23024,-11.1295 v 0.5858 m -2.93658,-0.2929 0.58732,0.5858 m 15.27023,3.5145 c -1.3614,0.367 -2.34486,-0.9715 -3.01088,-2.3301 -0.66454,-1.3558 1.19314,-1.7181 1.83625,-2.0631 m -24.07999,2.3431 0.58732,-1.7573 m 2.64292,0 1.17464,0.8786 -0.58732,-1.1715 m 16.15121,0.8786 1.76195,0.2929 m 12.92097,-0.8786 c 0.37618,0.9495 0.44637,1.1501 0,2.0501 v -1.4644 m 28.484871,-0.5857 0.880975,1.4644 m -55.207786,-1.1715 c 1.30854,1.2333 1.35347,1.829 1.76195,3.5145 m 0.88098,-3.5145 0.88097,2.0501 m 15.27024,-2.0501 -1.46829,1.4644 m 7.34146,-1.4644 c 0.10014,1.5903 0.10278,2.3377 1.17463,2.9288 v -1.1716 m 28.484871,-1.7572 c -0.616977,0.6153 -0.197632,0.1971 -0.880975,0.8786 m -4.404877,-0.5858 -2.055609,3.5146 m -52.85852,-2.9288 h -0.88097 m 1.76195,-0.2929 -1.46829,0.8787 m -4.11122,-0.5858 0.29366,1.1715 m 11.15902,-1.1715 0.88097,0.8786 m 50.80291,-0.8786 -1.174633,1.7573 c 1.038669,-0.4393 1.010185,-0.6171 1.468292,-1.1715 m -60.787289,-0.2929 0.29365,2.6359 m 5.87317,-2.6359 1.17464,0.8786 m 28.1912,-0.8786 -0.29365,1.4644 0.58731,-0.5858 m 18.206825,-0.8786 -1.174634,2.0502 m -32.596081,-0.8787 -0.88098,0.8787 c 0.25137,-1.2287 0.52594,-1.383 1.17464,-1.7573 0.39702,0.7685 0.59524,1.1882 1.76195,0.8786 m 34.945348,-0.8786 -2.349268,3.5145 m -52.2712,-3.2217 c 0.36472,2.1155 0.4261,2.9989 -0.29366,4.6861 l 0.58732,-0.5857 m 6.75414,-4.1004 0.58732,0.5858 m 12.92097,-0.5858 1.17463,1.4645 m 39.350233,-1.4645 0.880975,0.5858 m -63.723878,-0.2929 0.29366,0.5858 m 6.16683,-0.5858 0.29365,1.1716 m 15.5639,-1.1716 -0.58732,0.5858 m 3.52391,-0.2929 h 1.17463 m -28.77853,0.2929 v 0.2929 m 3.5239,-0.2929 0.88098,2.6359 m 32.30243,-2.6359 -0.58732,0.5858 m 26.722916,-0.5858 -0.880976,2.6359 m -60.78729,-2.343 v 0.5857 m 21.73072,-0.5857 1.46829,0.5857 v 0 m 36.707305,-0.5857 -0.880975,0.8786 m -46.98535,-0.5857 v 0.2928 m 7.63512,-0.2928 -1.46829,1.7572 m 1.76195,-1.7572 c 1.01283,0.6238 1.04719,0.5037 1.76195,0.2928 m 6.46049,-0.2928 c -0.17972,3.3198 1.16817,3.4882 1.76195,4.1003 m 32.596081,-4.1003 -0.880975,1.7572 m 2.055609,-1.7572 c 1.241587,1.3091 1.429529,1.1185 2.089379,3.2216 0.284849,0.9077 0.277507,1.3874 -0.366485,2.2189 -1.021932,1.3186 -1.100926,1.7333 -2.60387,3.053 m -66.073149,-8.2007 v 0.5858 m 7.63512,-0.5858 0.88098,2.3431 m 20.84975,-2.3431 h 1.76195 m 7.63512,0 c 0.18706,0.9657 0.3148,1.2038 0.88097,2.0502 -0.55883,0.3608 -0.75147,0.6411 -2.05561,0.5858 m 2.936586,-2.636 v 0.2929 m 20.849748,-0.2929 -1.174633,1.7573 m -48.453641,-1.4644 0.58732,0.5858 m 9.98438,-0.5858 1.4683,1.4644 -0.88098,1.1715 c -0.71799,-0.3403 -0.9309,-0.4817 -1.76195,0.2929 m 7.92878,-2.9288 2.05561,2.0502 m -25.84194,-0.8787 0.29365,-0.5857 m 18.50049,-0.2929 -0.29366,0.8786 m 3.5239,-0.8786 2.05561,2.343 -1.17464,0.5858 c 0.69715,2.4491 -0.3562,2.5504 -1.34378,4.0989 -0.53035,0.8315 -0.64076,1.4869 -0.71183,1.7587 m -24.07999,-8.4935 v 0.5857 m 22.6117,-0.5857 h 0.88098 m 2.64292,0 0.58732,0.2929 m -6.16683,0 v 0.2928 l 0.58732,0.5858 m 2.64293,-0.8786 1.17463,2.6359 1.17463,-1.4644 h -1.46829 m 0.58732,-1.1715 v 1.7572 m -22.02438,-1.4644 0.58731,1.1716 m 16.73853,-1.1716 -0.58731,0.5858 m 6.75414,-0.5858 -0.29366,0.5858 m 7.63512,-0.5858 0.29366,0.8787 m -29.07219,-0.5858 h 0.29366 m 18.20683,0 -0.88098,0.8787 h -0.58732 m 40.231207,-0.5858 c 0.513609,1.8252 2.091435,2.8005 3.230243,3.5146 m -66.3668,-3.2217 v 0.2929 m 0.58731,-0.2929 v 1.4644 m 0.88098,-1.4644 v 0.5857 m 0.58732,-0.5857 0.29365,1.1715 m 0.58732,-1.1715 v 0.2929 m 26.72292,0 -1.76195,0.2928 m 30.540472,-0.5857 v 0.2929 m 6.754144,-0.2929 -0.587317,1.7573 m -40.231199,-1.4644 c -1.04044,0.7202 -1.18903,0.9717 -2.34927,1.4644 m 7.63512,-1.4644 c 0.61991,1.1686 0.81784,2.5486 2.05561,2.343 v 0 m 10.27804,0.8787 c -2.039164,-2.0338 -2.46585,-2.4784 -3.523901,-3.2217 l 0.880975,3.2217 v -0.5858 m -40.818524,-2.3431 0.29366,2.636 m 26.1356,-2.636 -0.88097,0.2929 m 15.563893,-0.2929 0.587317,0.5858 m -41.11218,-0.2929 v 0.2929 m 21.73072,-0.2929 v 0.5858 m 2.05561,-0.5858 -0.58731,0.5858 m 6.46048,-0.5858 c 0.009,0.6186 0.21555,0.8901 -0.29366,2.3431 l 1.76195,0.2929 m -27.01657,-2.3431 v 0.2929 m 1.17463,-0.2929 0.58732,1.1715 m 19.67511,-1.1715 0.58732,0.5858 m 9.69073,-0.5858 v 1.1715 m -9.98439,-0.8786 -3.5239,2.9288 m 44.636081,-2.9288 0.880976,1.4644 m -64.898507,-1.1715 v 0.5857 m 0.58731,-0.5857 0.29366,0.2928 m 2.64293,-0.2928 0.29365,0.8786 m 20.26244,-1.1715 -1.17464,1.4644 m -24.37365,-0.8787 v 0.8787 m 67.54144,-0.8787 c 0.564999,0.2944 0.913865,0.3667 1.761951,2.0502 m -61.080951,-1.7573 v 0.2929 m 12.92097,-0.2929 -0.58732,0.5858 m 17.325849,-0.5858 0.587317,0.8787 m 25.254625,-0.8787 0.880975,2.9288 m 0.587317,-2.9288 v 0.2929 m -61.961923,0 0.29365,0.5858 m 21.43707,-0.5858 -0.29366,0.2929 m 3.81756,-0.2929 h 0.88098 m 4.40487,0 0.88098,1.1715 m 4.698531,-1.1715 h 1.174634 m 23.199016,0 c -0.759401,1.1124 -1.149673,1.7424 -1.468292,4.1003 m 4.698535,-4.1003 -0.293659,2.0502 m -60.787295,-1.7573 c 0.48718,1.4442 1.10005,1.8692 1.46829,3.2217 m 15.5639,-3.2217 0.88098,0.5858 m 0,-0.5858 h 0.58731 m -26.72291,0.2929 v 4.6861 m 4.11121,-4.6861 0.29366,1.1715 m 26.1356,2.0502 c 0.16974,-0.7697 -1.09006,-0.2414 -1.46829,0.2928 -1.50706,-1.4591 -0.38675,-2.6628 1.17463,-3.5145 m -20.26243,0.2929 0.58732,1.4644 m 14.97658,-1.4644 0.58732,1.4644 0.29365,-1.1716 m 4.40488,-0.2928 -0.29366,1.7572 m 5.57951,-1.7572 0.88098,1.1715 m 4.698531,-1.1715 c 0.278095,1.2028 0.130678,2.1717 0.587317,3.8074 l 0.293659,-0.8786 m -0.293659,-2.9288 -0.293658,0.2928 m -41.11218,0 0.88098,3.2217 m 4.40487,-3.2217 0.29366,0.5858 m 24.07999,-0.5858 1.46829,1.1716 0.29366,-1.1716 m -7.63512,0.2929 -0.29365,0.8787 m 16.738524,-0.8787 0.587317,0.8787 m 0.880976,-0.8787 2.055609,2.6359 m 25.254624,-2.6359 c 0.721225,0.9009 1.131173,1.4263 1.174634,3.2217 m -65.192174,-2.9288 c 0.3104,1.9957 0.29161,3.5134 2.34927,4.3932 m 29.95316,-4.3932 c 1.84741,2.2769 1.977496,2.896 1.53554,4.979 -0.15887,0.7483 -0.47132,1.7789 -0.94822,2.6359 l -1.17464,-1.1715 -0.29365,0.5857 0.29365,0.2929 h 0.29366 m 28.191211,-7.322 -0.293659,1.1715 m 4.111218,-0.8786 c -0.180893,0.7577 -0.288666,1.1618 -0.293658,2.9288 m -65.485832,-2.6359 v 0.5857 m 22.6117,-0.2929 h 0.58732 m 3.23024,0 c 1.15202,0 0.43843,0 0.88098,-0.2928 m 0.88097,0.2928 c 0.49129,3.9595 0.33272,5.8556 -1.17463,7.0292 -0.0264,-1.2626 0.53651,-1.2726 1.17463,-1.4644 m 4.11122,-5.5648 3.23024,2.636 m -32.30242,-2.3431 v 0.2929 m 17.6195,-0.2929 v 0.8787 m 2.64293,-0.8787 h 0.29366 m -22.31804,0.2929 h 0.29365 m 24.37365,0 -0.58731,0.5858 m -29.07219,-0.2929 v 0.2929 m 4.11122,-0.2929 0.29366,0.5857 m 23.19901,-0.5857 c -0.28602,0.6821 -0.50979,1.1973 0.58732,1.1715 v -0.5858 m -16.44487,-0.2928 v 0.2928 m 13.21463,-0.2928 -0.29366,1.7573 -0.29366,-0.8787 m 6.16683,-0.8786 h 1.17463 m 5.28585,0 0.58732,2.0501 -0.29366,2.0502 1.76195,-1.1715 m -35.53267,-2.636 0.29366,0.2929 m 3.23024,-0.2929 h 0.29366 m 28.48487,0 0.58732,0.5858 m -34.06438,-0.2929 v 0.2929 m 0.58732,-0.2929 v 0.2929 m 5.57951,-0.2929 1.17463,2.3431 m 20.55609,-2.3431 1.46829,0.8787 m -1.17463,-0.5858 h 1.17463 m 6.75415,0 -0.88098,0.8787 m 4.111218,-0.8787 c 0.414939,1.2811 1.25216,2.9918 2.642926,4.1003 l -0.880975,1.1716 1.174633,0.2928 0.293659,-0.2928 -0.293659,-0.2929 -0.293658,2.0502 v -1.4645 m -1.761951,-5.5647 2.055609,2.9288 m -43.755102,-2.6359 v 0.5858 m 3.5239,-0.2929 0.88097,0.2929 m 21.43707,-0.5858 0.29366,0.8786 m 0.88097,-0.8786 c 0.86013,1.5848 0.62344,2.6673 0.58732,4.6861 m 8.22244,-4.6861 c -0.34711,0.7301 -0.54797,0.8974 0,2.0502 m -36.41365,-1.4644 v 0.2928 m 24.37365,-0.2928 v 1.7572 m 1.17463,-1.4644 v 0.8787 m -26.1356,-0.5858 c 0.0693,1.4876 1.00725,3.0794 1.76195,4.979 m 36.11999,-4.979 0.58732,0.5858 m -34.94535,-0.2929 0.88097,2.343 m 0,-2.343 0.29366,0.2929 m 27.89755,-0.2929 2.34927,0.2929 m 1.17463,0 0.88098,2.0501 m -34.94536,-1.7572 0.58732,1.7572 m 23.78633,-1.4644 v 0.5858 m -26.72291,0 c 0.13596,1.0409 0.45869,1.7511 1.17463,3.2217 m 6.75414,-2.6359 0.29366,0.5857 m 35.53267,-0.5857 0.293659,0.8786 m -43.167789,-0.5858 -0.58732,0.5858 m 1.76195,-0.5858 0.29366,0.5858 m 43.461449,-0.5858 0.587317,0.5858 m -16.738526,-0.2929 h 0.29366 m 2.64292,0 0.46927,2.8439 1.58634,1.5493 m -29.6595,-4.1003 0.58732,0.2929 m 33.1834,-0.2929 0.29366,2.0502 m 6.166822,-2.0502 v 0.2929 m -8.516092,0.2929 0.29366,0.5857 m 8.809749,-0.5857 1.174634,0.5857 m -17.913163,0.5858 0.58732,-0.5858 v 3.5146 m 1.17463,-2.9288 v 0.2929 m 5.87317,-0.2929 0.29366,0.2929 m 8.222432,-0.2929 c 0.456639,0.5597 1.040726,1.151 1.692354,2.0507 1.384306,1.9102 0.886848,2.0449 1.537889,3.8069 0.475727,-0.9659 0.616976,-1.2116 0.293659,-2.343 m -1.761951,-3.2217 1.174634,0.8786 m -3.230243,-0.5857 c 0.377351,1.583 0.783774,2.6617 2.349267,3.2216 m -16.738531,-2.6359 v 0.2929 m 2.05561,0 c 0.008,2.8588 0.44108,8.6499 0.57587,11.7152 0.14712,3.3547 0.0115,6.8461 0.0115,10.2509 0,2.6309 -0.32596,6.8191 0.58731,7.6149 h 0.88098 m -5.57951,-28.7024 v 1.1716 m -27.31023,-0.8787 0.58731,0.8787 m 44.929741,-0.2929 0.293659,0.2929 m -1.468292,0 2.349267,3.5145 m 0.880975,-2.9288 0.880976,0.8787 -1.174634,-0.5858 m 2.349267,0 0.880976,0.8786 -0.293659,0.8787 0.293659,0.2929 m -1.761951,-1.4644 h 1.174634 m -5.285852,0.2928 v 0.8787 m 6.166827,-0.8787 1.174634,0.8787 m -3.81756,-0.5858 1.468292,1.4644 m -2.936584,-0.8786 0.587317,1.7573 m -1.174634,-1.1715 0.293659,0.8786 m 3.230242,2.343 0.293659,0.2929 m -14.095608,9.6651 v 3.5146 m 0,4.1003 v 0.2929 m 0,1.7573 v 0.2929 m -4.69853,1.4644 0.29366,8.7864 0.0919,3.2217 0.74736,2.037 -0.54561,1.1847 -0.29366,-2.0502 m 0.29366,2.0502 c 2.9e-4,2.3849 -0.0106,4.9318 0.24432,7.6149 0.35415,3.7284 0.86277,8.6042 0.61022,12.301 -0.14183,2.0803 -0.20203,3.8235 -0.25254,5.8576 -0.0602,2.4371 -0.01,5.9894 -0.0147,8.4936 -0.004,1.7663 -0.32449,4.4433 -0.28925,5.5647 0.0123,0.3869 -0.0649,1.3229 0.50715,1.8677 1.36845,1.303 2.02771,-0.9258 2.13137,-1.2819 m -0.58732,-2.9289 0.58732,0.5858 m -2.34927,3.8075 -0.88097,2.343 m 4.99219,0 H 7.59448"
       id="path190" />
  </g>
</svg>
